<svg id="_1Ring" data-name="1Ring" xmlns="http://www.w3.org/2000/svg" xmlns:xlink="http://www.w3.org/1999/xlink" viewBox="0 0 1000 1000"><defs><style>.cls-1{fill:none;}.cls-2{opacity:0.8;}.cls-3{isolation:isolate;}.cls-4{clip-path:url(#clip-path);}.cls-5{fill:#222;}.cls-6{fill:#fcfcfc;}.cls-7{clip-path:url(#clip-path-2);}.cls-8{opacity:0.2;}</style><clipPath id="clip-path"><path id="SVGID" class="cls-1" d="M52.46,481.15c0.22-11.11,1.63-25.88,3-36.91,1.32-10.86,3.28-25.36,5.87-36,2.55-10.41,5.19-24.52,8.58-34.68S77.34,350,81.09,340s9-23.09,13.82-32.53,10.7-22.25,16.29-31.21c11-17.57,25.91-40.9,38.85-57.07,6.55-8.19,15.72-18.77,22.88-26.44s17-16.89,24.36-24.13c7.52-7.44,18.58-16.27,26.9-22.82,8.69-6.84,20.48-15.75,29.92-21.52,17.2-10.52,40.55-23.95,58.73-32.67A382.24,382.24,0,0,1,350.1,76.45c8.85-3,20.73-6.82,29.71-9.44,5.32-1.55,12.53-3.19,17.92-4.47,5-1.18,24.18-5.18,46.33-7.93,6.53-.81,15.25-1.81,21.81-2.33,3-.24,7-0.61,10.06-0.79,5.32-.31,12.42-0.77,17.75-0.86,2.23,0,5.19-.11,7.42-0.09,6.85,0,10.58.12,12.5,0.19s3.69,0.12,5.53.2c2.49,0.1,5.13.24,5.51,0.26,7.21,0.4,12.63.84,15.91,1.13,12.43,1.13,19.12,2.09,26.87,3.2,3.26,0.47,7.59,1.19,10.84,1.76s7.36,1.38,10.51,2C776.1,96.64,912.25,279.7,903.51,499.61c-9.8,246.66-198.16,446.34-420.7,446,222.53,0.38,410.9-199.31,420.7-446,8.73-219.91-127.41-403-314.75-440.35,7.78,1.61,18.1,4,25.8,6,6.17,1.58,14.36,3.87,20.41,5.86,8.49,2.81,19.81,6.6,28.14,9.86,8.79,3.44,20.5,8.14,28.91,12.43C701.13,98,713.38,104,722.27,109.1s20.25,12.11,28.63,17.77c8.65,5.84,19.89,14.06,28.07,20.54,8,6.36,18.66,15,25.92,22.21s17.49,16.91,24.58,24.55,15.94,18,22.34,26,14.71,19.38,20.55,28,13.11,20.28,18.2,29.29a445.72,445.72,0,0,1,49.3,130.84c2.11,10.58,4.5,24.79,5.81,35.5s2.07,25.26,3,36.09a259.68,259.68,0,0,1,0,36.79c-1.63,21.19-4.16,49.52-8.33,70.36-2.11,10.52-5.46,24.44-8.39,34.76s-7.06,24-11.11,33.87c-4,9.74-9.1,22.81-13.54,32.34s-10.9,22.07-16.09,31.26a450.62,450.62,0,0,1-140.68,151.9c-8.46,5.69-20,12.88-28.89,17.88-9.81,5.52-23.27,12.19-33.38,17.14a385.64,385.64,0,0,1-47.05,18.57c-7.91,2.53-18.5,5.78-26.54,7.86-9.07,2.34-21.22,5.26-30.45,6.87-5.53,1-12.9,2.2-18.46,3s-13,1.62-18.55,2.22c-8.29.88-22.53,2-33.73,2.35-2.45.08-8.2,0.27-13.44,0.25-2.53,0-10.24,0-18-.39-3.14-.14-7.89-0.35-14.45-0.83-6.94-.51-13.61-1.15-20.41-2-16.64-2-29.35-4.47-34.78-5.53-9.27-1.81-21.48-4.95-30.63-7.26-6.34-1.6-14.69-4.18-20.89-6.27-8.38-2.82-19.53-6.66-27.69-10.08a625,625,0,0,1-57.2-27.91,302.89,302.89,0,0,1-30.52-19.38c-8.35-6.25-19.71-14.32-27.8-20.9S199.13,831.56,192,824.24s-17.27-17.13-24.26-24.86-15.71-18.17-22-26.31a450,450,0,0,1-38-57.82C102.63,706.06,96.34,693.57,92,684s-9.22-22.58-13.16-32.26a253.7,253.7,0,0,1-10.73-33.67c-4.9-20.78-10.93-48.69-13.35-69.89C52.48,528.2,52.07,501.27,52.46,481.15Z"/></clipPath><clipPath id="clip-path-2"><path id="SVGID-2" data-name="SVGID" class="cls-1" d="M412.35,938.59c-12.57-2.66-29.17-7-41.56-10.4-6.33-1.75-14.64-4.55-20.81-6.82-11.91-4.38-27.56-10.82-39.12-16.06-8.71-3.94-19.87-10.11-28.36-14.5a296.07,296.07,0,0,1-35.12-21.75c-8.74-6.41-20.53-14.8-29-21.6-8-6.43-18.48-15.22-25.7-22.49-7.44-7.49-17.53-17.33-24.63-25.15-6.92-7.62-15.73-18.15-22-26.28-6.43-8.28-14.56-19.67-20.33-28.42s-12.86-20.46-17.85-29.52A445.56,445.56,0,0,1,60.13,583.85C58,573.24,55.94,559,54.77,548.2S52.65,522.87,52.28,512c-0.69-20.26,1.39-47.31,3.12-67.5a261.24,261.24,0,0,1,5.85-36c2.56-10.41,5.58-24.39,8.56-34.69S77,349.9,81.09,340c8.08-19.31,19.39-44.94,29.77-63.13a449.81,449.81,0,0,1,86.44-108.25c7.54-6.92,17.94-15.78,26-22.11,8.32-6.53,19.64-15,28.54-20.71,8.49-5.45,19.84-12.68,28.63-17.61,9.52-5.33,22.34-12.29,32.37-16.58C330,84.31,353.43,75.5,371.16,69.52c3.59-1.21,20.16-5.8,31.08-8,7-1.38,16.28-3.16,23.29-4.3,6.86-1.11,16-2.39,22.94-3.19,6.42-.75,15-1.66,21.42-2.13,2.94-.21,6.85-0.54,9.79-0.69,5.11-.26,11.92-0.62,17-0.68,10.4-.13,19.78.24,22.4,0.36,9.28,0.41,15.89.87,25.24,1.75,3.94,0.37,12.15,1.23,22.9,2.83,4.7,0.7,12.24,1.91,21.49,3.75a362.8,362.8,0,0,0-70.47-7,362.8,362.8,0,0,1,70.47,7h0C601,62,617.28,66,629.36,69.36c7.87,2.21,18.2,5.75,25.86,8.59,8.85,3.27,20.55,7.93,29.12,11.87,10.88,5,25.2,12.15,35.67,18a447.49,447.49,0,0,1,58.1,38.9c16.09,12.64,35.69,31.76,50.2,46.19,7.53,7.49,16.5,18.5,23.13,26.8,6.43,8.05,14.58,19.13,20.37,27.66,5.91,8.71,13.34,20.63,18.56,29.77s11.2,21.49,16,30.7c4.86,9.38,10,22.52,13.76,32.4s7.79,23.26,11.12,33.23c3.39,10.14,6.48,24.11,8.59,34.6s4.52,24.79,5.84,35.51,2.09,25.26,3,36.08a261.89,261.89,0,0,1,0,37c-1.67,21.82-4.46,51-8.75,72.41-4.06,20.3-11.19,47.15-19,66.33-4,9.74-9.09,22.81-13.52,32.35s-10.87,22-16,31.21A450.61,450.61,0,0,1,751.89,870.25c-8.85,6-20.8,13.85-30.27,18.81-17.51,9.17-41.3,20.61-59.54,28.23a315.85,315.85,0,0,1-30.52,10.54c-13,3.76-30.43,8.3-43.67,11-5.47,1.1-12.8,2.37-18.32,3.14-10.77,1.5-14,2-27.73,3.28-2.65.26-6.19,0.56-8.85,0.74-4.93.33-11.5,0.73-16.43,1-3.71.18-11.08,0.38-16.53,0.37-9.82,0-18-.38-18-0.39-1.84-.09-3.67-0.16-5.51-0.26-3.47-.19-5.69-0.34-5.78-0.35-2.65-.18-8.16-0.57-14-1.14-10.24-1-17.32-2-22.89-2.82C422.58,940.67,412.44,938.61,412.35,938.59Z"/></clipPath></defs><title>SVG2optimized</title><path class="cls-2" d="M501.17,40.36C246.35,40.36,39.78,245.7,39.78,499s206.57,458.64,461.4,458.64S962.57,752.3,962.57,499,756,40.36,501.17,40.36Zm0,890.82C261,931.19,66.38,737.69,66.38,499S261,66.81,501.17,66.81,936,260.31,936,499,741.3,931.19,501.17,931.19Z"/><g class="cls-3"><g class="cls-3"><g class="cls-4"><path class="cls-5" d="M241.86,854.91c-0.5-.38-7.28-6.28-7.34-6.33l0.3,0.19c7,4.49,9.53,7.52,9.55,7.55v0.06a8.65,8.65,0,0,1-2.51-1.47m54.68-65.36c-1.83-2.9-1.09-4.87-.92-5.23,0.86-1.88,3.92-4.83,4-4.86a2,2,0,0,1,1.77-.39c0.91,0.19,1.76.61,2.69,0.73a4.51,4.51,0,0,0,1.84-.17c1.16-.38,1.82-1.76,3.24-1.61,3.78,1.26,8.76,14.1,4.89,16.21-0.36.19-8.88,2-10.35,1.6s-5.51-3.74-7.11-6.28M139.26,763.66c-4.65-6.23-4.44-6.46-4-6.95-2.87-6-7.93-10.52-10.76-16.51,1.51,1,1.9,3.64,4.46,3.25,0.37-3.85-3.13-6-4.11-9.21l0.24,0.3c10.5,13,16.28,20.12,18.38,20.77,1.41-3.75,17,14.4,17.18,14.66,1.42,2.9,1.94,6.15,3.54,9,4.86,8.58,4.86,8.58,4.68,8.89-1.35-.06-1.93-1.76-3.38-1.61-0.08.82,0.59,1.5,0.44,2.34-1.07-.39-1.7-1.38-2.64-1.94l-0.21.35c0.6,1.48,2.23,2.51,1.88,4.4l-0.25.16c-0.05,0-7.58-3.94-25.43-27.87m49-45.12c-3.75-6.51,8.71-8.67,8.85-8.68a1.5,1.5,0,0,1,1,.35c2.25,1.79,6.44,5.13,10.81,4.64,0.69-.08,2.8-0.31,19,11.8,1.83,1.37,1.31,2.54.41,2.72-2.59.52-4.82-1.09-7.29-1.23a30.11,30.11,0,0,0-4,.52c-8,.6-13.2-5.6-19.89-8.18-1.42-.55-5.61-1.64-7.08-1a1.15,1.15,0,0,1-.75.15,2.16,2.16,0,0,1-1.12-1.11m-116.69-92c-1.2-3.86-2.77-10-2.5-11.56l0.05,0c2.53,5,5.56,16.58,5.41,18.23l-0.09,0c-0.82-.32-2.41-5.26-2.88-6.77m0.59,5.25-4-13.49-1.54-5.73,0,0.07,6.17,21.19c-0.3-.69-0.48-1.42-0.72-2.13l0,0.09m-0.32-29.35c-2.22-8.57-2.27-12.81-2.29-14.62,0-2.71,1.69-5,1.71-7.74,0-2.86-.89-5.66-0.58-8.54,0.14-1.3.28-1.76,0.8-1.78A3.5,3.5,0,0,1,73,571.57a39.82,39.82,0,0,1,4.45,11.07,7.66,7.66,0,0,0,1.35,3c1.12,1.44,2.76,2.42,3.62,4.09,0.11,0.21.24,0.48,0.33,0.7,0.9,2.19,1.14,6.3.15,7.09-1.73-.32-1.71-2.51-3.24-3-0.34.54-.39,0.63-0.17,5.11,0.48,9.72.57,13.14-.8,14.43h0c-3,.74-3.61.9-6.86-11.56M300.4,896.4c0.11,0.06,11.5,5.69,13.5,5.84a0.85,0.85,0,0,1,.49-0.22l0.15-.1c0.06-1.51-22.77-13.16-23-13.24a10.52,10.52,0,0,0,2.23,1.43c10.17,5.35,13.18,7.94,13.2,8l-0.06.11c-2.74-.39-8.43-3-14.14-6.44a21.74,21.74,0,0,0-3.19-1.72c0.36,0.69,7.43,4.65,10.82,6.37M419.49,716.93c0.15,0.88,1.7,8.63,9.27,9.25,6.27,0,10.71-4.69,2.33-13.32-5.06-5.21-6.73-5-7.44-4.91-1.41.18-4.14,2.53-4.33,6.4a12.42,12.42,0,0,0,.17,2.57m100.4-29.38c0.64,1.7,1.14,3,2.63,3.12a2.92,2.92,0,0,0,2.06-5,3.34,3.34,0,0,0-3.14-.68,2.39,2.39,0,0,0-1.64,2.28,1.33,1.33,0,0,0,.1.25m279.34,145.6c-0.79.71-1.77,1.59-2,1.8,0.32-.21,3.14-2.66,3.16-2.69L811,822.46c-2.42,2.32-3.13,2.95-11.77,10.7M833.53,798c-6.61,8.92-20.88,22.83-21,23l17.5-17.9,9.44-10.54c2.35-2.71,2.57-3,2.65-3.11-1.1,1.16-2.11,2.4-3.21,3.56,0.52-.87,1.28-1.57,1.81-2.44a1.32,1.32,0,0,0-.24.15L833.53,798M118.19,550.1c0.57,2.54,3,5.93,5.18,6.35a2.4,2.4,0,0,0,1.65-.29,9.24,9.24,0,0,1,6.84-.87c1.47,0.29,2.85.91,4.32,1.2,0.89,0.17,3.43.36,3.75,0.37h0.25s0.35,0,.74,0a4.56,4.56,0,0,0,3.5-1.75s3.47-4.9.36-13.57c-0.74-2.07-5.9-11.7-6.3-12.25a3.6,3.6,0,0,0-3.86-1.46c-1.53.2-3,.64-4.56,0.79-2.57,0-4.25-.63-6.31-4.35-1.23-2.21-2.46-1.56-3.2-.22a5.77,5.77,0,0,0-.33,3.73,23.18,23.18,0,0,1,.41,6.49c-0.37,4.27-2.19,8.25-2.58,12.52a11,11,0,0,0,.14,3.33m411.22-19c0.12,0.65,1.51,6.43,11.83,9.46,1.8,0.53,6.6,1.94,4.79,7.78-0.76,2.46-2.54,3.51-5.95,3.51-5.48,0-3.13,3.9-3.1,3.94,0.55,0.87,9.38,8.13,13.63,8.46,5.78-.07,11.89-9.7,6-15.49-5.35-5.27-5-6.3-1.31-16.09,1.51-4,1-6.94-1.46-8.66-7-4.88-23.74-.94-24.51,5.77a4.88,4.88,0,0,0,.06,1.32m-290.55,332c1.51,1.08,1.51,1.08,6.87,4.74-2-1.56-4-3-6-4.56,5.23,2.92,10,6.52,15.21,9.53l-1.57-1.7a52.75,52.75,0,0,1,5.36,2.7c5.57-1.53,12-3,12-3,8.69,3.16,13.5,11.86,22,15.33-0.24-2.24-.24-2.24-3.64-6.59,2.11-.62,2.11-0.62,7.21.62l1-2.14c-2.24-3.63-5.94-5.81-8.73-8.89l1.23-2c1.5,0.53,3.47,1.31,4.92,1.95L295,866.6a28.11,28.11,0,0,1-2.85-4.59l1.34-2c10.85,2,17.91,12.8,29.61,12.9,3-3,3-3,1.9-9.49,1.18,0,1.18,0,20,4.61a14.21,14.21,0,0,0,1.28-4.71c5.42-3.68,5.42-3.68,50,16.94l2.15-1.38c0-11.94,0-11.94,6.73-20.56-3.08-7.73-10.57-12.49-13.64-20.22,15.57,8,15.57,8,18.07,7.47l0.7-2.27c9.31,0.71,16.54-6.13,25.41-7-3.67-4.71-4.17-5.34-8.91-11.34,3.16,1,5.67,3.9,9.41,3.17,4.18-9.75,13.71-16.37,16-27.25a29.2,29.2,0,0,1-5-1.17l1.78-30.85a21.42,21.42,0,0,1,2.53-3.78c9.13-9.23,24.11-3.05,33.12-12.59,6.62-7,3.13-10.13,2-11.15-9-8-5-19.78,5.36-16,8.28,3.05,25.11-26.3,25.85-30.73,1.74-10.42-20.53.16-24.26,7.62-1,1.93-1.61,4.88-3,6.52-7.86.47-14.21,6.13-22.11,6.44-8.51.34-11.55,8.39-17.46,12.39a20.9,20.9,0,0,0-2.29,2.2c-2.15,2.07-1.61,5.48-3.76,7.54-6.76,6.48-18.51,6.58-22,17.21-4.14-7.3,3.9-16.18-3-23.12-12-12.13-18.12-4.71-19.18.78-2.65,13.72-24.75,34-26.15,35-0.59.4-1.38,0.94-2,1.32-3.16,2-6.39-1.88-9.55.11-4.46,2.81-3.09,10.21-9.22,11.72l-18.85-3.4c1-2.75,2.86-5.07,4.14-7.69,3.44-7.09,12.46-8.36,16-15.35,10-19.8,10-19.8,13.21-23.38,11.36-12.8,2.07-30.53,10.53-44,6.36-10.14,19.7-11.73,26.37-21.5,6.24-9.13,1.58-27.27,17.16-28.35,16-1.11,20.18-11.31,21.07-14.41,0.24-.82.48-1.94,0.68-2.78,1.78-7.28,8.4-12,10.09-19.35,1.11-4.8-4.55-8.29-2.58-13.26,2.05-5.19,8.42-6.53,10.45-11.74,5.15-13.21-2.08-14.5-15.21-16.85-0.12-.22-0.12-0.22-1.58-9.61-5.88-3.2-22.3-10.69-22.34-10.7-7.77,11.7-20.3,4.86-30.33,7.79,1.15,1.6,2.66,3.76,3.75,5.41-4.14,9.35-4.14,9.35-7.5,20.69l-6.09,18.79c-18.32,10.28-36-3.83-54.06-1.5-10.6,1.37-33-13.1-31.94,1.95,1.47,21.75,25.74,22.28,34.59,37.17l-2.11,2.07c-27.17-4.35-27.17-4.35-29-13.87-2.29-11.62-3.64-11.8-38.05-16.46-12.86,13.41-12.86,13.41-23.52,8.78-3.24-1.41-6.89.49-10.09-1.25-4.54-2.48-4.3-10.07-11-10.27-8.58-9.66-8.58-9.66-24.48,5.16-7.51-1.55-7.36-10.13-12.63-13.74-0.79,2.38-.79,2.38,2.12,13.85-4.7-.44-5.87-5.62-9.71-7.21l-2.3,1-2,.43h-0.16l-2.76.53c-7.16,13.82-7.16,13.82-10.52,12.72-4.61-1.51-13.18-4.31-18.95,1.38,0.53,2.17,2.75,4.49,4.38,6,23.08,21.72,36.34,58.23,36.31,58.44l-45.41-25c-3.39-2.4-5.35-5.68-9.18-13.72-10.54-22.12-13.67-26.39-18.63-25.4-13.9-8.22-7-23.68,2.48-45.08,2.92-6.57,2.92-6.57-26.56-45.9-1.65,4.64-2.26,6.38-2.76,35.94-3.48-3.33-3-8.33-5.12-12.22-0.8,1.3-1.88,3-2.71,4.3-1.86-1.33-1.86-1.33-4.52-5.5l-2.31-.08C57,568.59,59,578.59,61,588.26l7.19,30.08c14.21,44.54,14.21,44.54,23.94,66,20.75,41.29,20.75,41.29,33.59,60.81,10.4,14.56,24.69,33.71,36,47.55,6.35,6.48,12.12,13.5,18.45,20,11.26,10.66,26.37,24.8,38.22,34.79l20.19,15.44,0.25,0.18M903.51,499.61c8.73-219.91-127.41-403-314.75-440.35,22.25,5,38.33,8.59,66.45,18.7,37.41,15.26,40.47,16.5,64.79,29.87,38.07,23.32,38.79,23.76,58.1,38.9,34.18,29.14,34.83,29.69,51,47,30,34.79,30,34.79,43.08,54.15,24.4,39.19,24.4,39.19,34.37,60.33,18.2,42.91,18.2,42.91,24.79,65.56,11.18,45.11,11.4,46,14.34,69.82,3.91,47.47,4,48.38,3,73.11-3.44,42.92-4.37,54.45-16.72,105.12-14.67,44.76-14.67,44.76-24.65,66.21-21.22,41.28-21.22,41.28-34.29,60.72-27.14,37.19-27.14,37.19-43,54.34-32.38,32.46-32.38,32.46-50.75,47.07-36.14,26.53-36.83,27-57.64,38.91-38.41,20-39.91,20.75-63.81,29.85-32.22,10.94-38,12.91-69.93,19.88A499.61,499.61,0,0,1,500,947.3c-2,0-4.64,0-6.63-.06-1.76,0-4.11-.08-5.87-0.13s-3.87-.13-5.53-0.2-3.86-.17-5.51-0.26-4-.23-5.78-0.35c-1.92-.14-4.49-0.32-6.41-0.47-2.27-.2-5.29-0.45-7.56-0.67-6.23-.64-6.35-0.65-9.6-1-8.51-1.08-8.85-1.12-13.43-1.81-13.1-2.12-13.88-2.24-21.35-3.73-25.89-5.82-40.14-9-72.19-20.85-37.46-15.9-40.52-17.2-64.22-30.67-37.79-23.85-38.51-24.31-57.52-39.62-33.81-29.59-34.45-30.16-50.32-47.64-29.51-35.19-29.51-35.19-42.38-54.71-23.9-39.53-23.9-39.53-33.59-60.81-17.65-43.2-17.65-43.2-23.94-66C57.59,573,57.39,572.13,54.77,548.2c-1.38-20.08-2.42-46.92-2.3-67,3.91-48.77,3.91-48.77,8.8-72.64,11.4-46.17,11.4-46.17,19.83-68.46,18.25-43,18.25-43,29.91-63.39,24.46-39.17,24.46-39.17,39-57.42,30-34.75,30-34.75,47.24-50.57,34.22-29.1,34.87-29.66,54.53-42.82,37.27-22.92,38.73-23.81,61-34.18,36.31-15.25,40.11-16.84,67-24.65A509,509,0,0,1,501.1,50.55c2,0,4.64,0,6.63.06,1.76,0,4.11.08,5.87,0.13s3.87,0.13,5.53.2,3.86,0.17,5.51.26,4,0.23,5.78.35c1.92,0.14,4.49.32,6.41,0.47,2.27,0.2,5.29.45,7.56,0.67,6.35,0.65,6.35.65,9.6,1,8.51,1.08,8.84,1.12,13.43,1.81,13.1,2.12,13.88,2.24,21.35,3.73C776.1,96.64,912.25,279.7,903.51,499.61c-9.8,246.66-198.16,446.34-420.7,446,222.53,0.38,410.9-199.31,420.7-446"/><path class="cls-6" d="M241.86,854.91a8,8,0,0,0,2.51,1.47v-0.06s-2.45-3-9.85-7.74c0.06,0.05,6.83,5.95,7.34,6.33m54.68-65.36c1.11,1.76,5.42,6.21,7.77,6.37,9.94-.53,10.57-2.45,10.84-3.26,1.35-4-2.62-12-5.06-14.11-1.71-1.45-3.06.85-4.61,1.18s-3.09-.82-4.71-0.72a1.94,1.94,0,0,0-.78.17,30.9,30.9,0,0,0-4.06,4.47,4.4,4.4,0,0,0-.59,2.78,7.36,7.36,0,0,0,1.19,3.11M139.26,763.66c17,22.8,25,27.88,25.59,27.8,0.72-2.11-1.81-3-1.8-4.86,1.12,0.34,1.75,1.35,2.68,1.94l0.23-.28a7.84,7.84,0,0,1-.54-2c1.57-.43,2.08,1.48,3.43,1.54,0.24-.41.38-0.66-0.17-1.84-1.93-4.09-5.26-7.4-6.64-11.81s-1.41-4.5-2.34-5.74c-0.12-.15-14.28-14.51-15.79-14-0.4.14-.18,0.63-0.46,0.84-2.37-.74-11.76-12.49-18.61-21.07A14.41,14.41,0,0,0,126.2,737c2.75,5.22,3.08,5.91,2.68,6.45-1.56-.08-1.71-0.25-4.22-3.21,1.83,6.61,8.83,9.9,10.61,16.54L135,757c0.06,0.61.11,1.13,4.23,6.66m49-45.12a2.29,2.29,0,0,0,1,1.08,1.14,1.14,0,0,0,.94-0.15c1.18-.55,5.14.4,5.66,0.56,6.23,1.85,11,6.76,17.33,8.35a9.33,9.33,0,0,0,1.81.27c2,0.05,4-.62,6.05-0.5,2.33,0.14,4.49,1.23,6.85,1.25a1.07,1.07,0,0,0,1.22-.61c0.59-1.58-16.48-14.17-20.66-13.9-3.57-.08-5.88-1.13-10.33-4.68-1.25-.83-11.32,1.28-10.43,6.76a4.84,4.84,0,0,0,.55,1.57m-116.69-92c0.47,1.51,2.06,6.44,2.88,6.77l0.09,0c0.15-1.66-2.88-13.23-5.41-18.23-0.43.77,0.94,6.68,2.44,11.51m0.59,5.25c0.26,0.69.39,1.43,0.71,2.1-1.85-7.17-4.24-14.18-6.2-21.32l1.54,5.73,4,13.51v0m-0.32-29.35c3.25,12.46,3.87,12.31,6.86,11.56h0c1.37-1.29,1.28-4.72.8-14.43-0.18-3.75-.18-4.41,0-5l0.27-.1c1.18,0.85,1.19,2.91,3.1,3,1-.8.76-4.91-0.15-7.09-0.09-.21-0.23-0.49-0.33-0.7-0.94-1.83-2.83-2.83-3.93-4.53a8.31,8.31,0,0,1-1-2.57A40.25,40.25,0,0,0,73,571.57c-0.9-1.62-1.29-1.7-1.71-1.78-0.39.28-.49,0.48-0.62,1.77-0.31,3.17.82,6.26,0.54,9.42-0.2,2.37-1.71,4.43-1.67,6.86,0,2,.1,6.19,2.29,14.62m167,260.6-20.44-15.62c-11.67-10.21-27.16-23.93-38.22-34.79l-1.32-1.35c-26.3-27.8-43.12-51.84-53.16-66.2-23.9-39.53-23.9-39.53-33.59-60.81-17.65-43.2-17.65-43.2-23.94-66L61,588.26l0-.12a97.81,97.81,0,0,1,1.32-45.35c3,1.17,4.06,4.73,7.23,5.63l0.92-2.26,2.37,0.36c0.87,3.37,1.58,6.79,2.58,10.13,8.87-11.34,1.22-24.37,3.73-36.37,28.4,36.37,28.4,36.37,27.52,44.3-0.76,6.79-9.2,8.66-9.9,15.48-1.68,16.37,5.05,30.86,5.12,31,20,5.11,16.2,27.43,28,38.5L163,671.34c0.08,0,10.33,4.49,13.72,4.67,0-.24-17.23-42.59-36.15-58.59-4.11-3.47-4.14-3.93-4.33-6.88,1.68-.72,1.68-0.72,25.74.76,3.78-3.91,1.53-9.17,3-13.6l2.31-.86,1.1-.08h0.16c1.5-.4,3.48-1,5-1.4,1.73,1.11,1.73,1.11,7.52,7.86l1.3-2.13c-2.33-6.13-2.75-7.41-2.48-11.51,7.52,1.17,7,9.83,12.29,13.12,19.22-12.41,19.22-12.41,25.4-5.45,3.28,0.18,3.28.18,23.53,12.79,9.89,6.16,17.12-4.67,19.77-9.62,13.7-1.67,37.1-1.26,39.88,20.22,1.14,8.79,1.14,8.79,29.45,9.57l0.91-2.67C321,615.4,305.26,608.81,298,593.89c-4.59-9.41,12.08-9.1,12.26-9.08l41.83,6.9c5,4.07,22.9,2.48,25.21,1.61,19.77-7.48,8.29-29.32,18.85-41-0.79-2.16-3.36-4.39-5.41-5.42,10.35-5.49,22.89-2.78,33.08-8.87,7.34,2.11,12.87,8,20.42,9.71,1.1,1.83,1.1,1.83,1.2,9.05,5.74,3.77,15.92.81,17.79,10.33a16.72,16.72,0,0,1-.6,6.71c-1.63,6.07-9.16,7.18-11,13.07-1.6,5.12,3.57,9,2.51,14.07-0.07.31-11.31,32.25-25.52,35.22-3.89.81-8.45-2.74-11.78,1.78-8.39,11.41-10.06,26.19-18.83,37.4-4.9,6.27-14.89,3.81-19.16,11.17-3.51,6,0,12.46-1,18.64-3.18,19.82-3.18,19.82-42.92,70.43,3.92,8.39,21,4.13,21.12,4.06,5.07-1.93,3.16-8.28,7-11,2.64-1.9,4.58,1.44,7,1,1.94-.39,15.29-9.74,15.7-13.4,0.07-.66,17.9-49.85,35.7-22.87,4.34,6.58-1.27,13.2.07,19.79,6.33-4.35,16.86-.92,20.17-10.88l18.67-26.47c9.62-6.18,21.42-3.59,31.51-7.88,3.8-15.53,23.44-18.07,24.73-16.87,6.54,6-16.91,35.06-23.45,34.7-9-.49-9-0.49-9.58.32a10.11,10.11,0,0,0-.09,12.23C497.5,757.4,471.32,758,471,758c-10.4-.77-14.7-1.08-22.08,10.86-5.76,9.31,1.44,19.83-2.74,29.28a8.53,8.53,0,0,0,3.89,2.44c4.92,10.43-15.58,28.16-15.81,28.29-3.09-2-3.09-2-7.05-4.49,1.7,3.22,1.7,3.22,8.47,11.91-8.69.88-15.59,8.16-24.86,6.93l-1.25,2.37c-2.5.53-2.5,0.53-18.07-7.47,3.15,7.94,15.6,10.37,12.9,21.77-1.57.69-1.57,0.69-6.41,19.87-1.81.24-4.3,0.56-15.79-8.53-0.16-.13-28.42-10.22-35.21-8.75a12.32,12.32,0,0,0-1,4.46l-2.1,1c-7.26-3.08-13.61-4.59-18.88-4.5a14,14,0,0,0,1.72,4.44,11.24,11.24,0,0,0-2.22,4.46c-13.34,3.34-18.37-16.43-32.25-11.59,0.12,0.86.12,0.86,4.53,8.68-2.65-.61-5.15-1.7-7.77-2.4,0.57,5.51,6.16,7.35,8.47,11.58l-2,1.44c-1.43-.43-3.35-1-4.8-1.34l-0.48,2.3c1,1.25,2.36,2.9,3.4,4.12-0.74.12-1.76,0.66-2.46,0.4-6.8-2.48-11.08-8.36-16.75-12.38-6.58-4.67-14.57,1.39-21.22-2.77l1.66,1.93c-2.46-1-2.46-1-14.82-9.11a45,45,0,0,0,5.75,4.51c-2.41-1.53-3.74-2.37-6.87-4.62"/><path class="cls-6" d="M118.19,550.1c0.57,2.54,3,5.93,5.18,6.35a2.4,2.4,0,0,0,1.65-.29,9.24,9.24,0,0,1,6.84-.87c1.47,0.29,2.85.91,4.32,1.2,0.89,0.17,3.43.36,3.75,0.37h0.25s0.35,0,.74,0a4.56,4.56,0,0,0,3.5-1.75s3.47-4.9.36-13.57c-0.74-2.07-5.9-11.7-6.3-12.25a3.6,3.6,0,0,0-3.86-1.46c-1.44.19-2.84,0.6-4.29,0.76-3.64.41-5.31-2-6.59-4.33-0.58-1-1-1.42-1.78-1.44-1.48.26-1.79,2.35-1.79,2.37a6.69,6.69,0,0,0,0,2.59,21.69,21.69,0,0,1,.16,8.43c-0.59,3.57-2,6.95-2.33,10.58a11.5,11.5,0,0,0,.14,3.33"/><path class="cls-6" d="M529.41,531.09c0.12,0.65,1.51,6.43,11.83,9.46,7.5,2.2,5,7.73,4.37,8.82-1.18,2.18-3.45,2.47-5.52,2.47-5.84,0-2.81,4.34-2.77,4.39,0.89,1,8.64,6.91,11.83,7.78a6.14,6.14,0,0,0,6.95-2.66c3-4.2,3-6.9,3-8.2,0-2.06-1.55-3.52-2.47-4.4-2.84-2.69-5.29-5-3.47-10.79,0.71-2.26,2-4.29,2.6-6.59A8.77,8.77,0,0,0,556,527c-1.13-4.36-7-4.8-10.08-5-9.92-.44-17.38,4.64-16.52,9.11"/><path class="cls-6" d="M300.4,896.4c0.11,0.06,11.5,5.69,13.5,5.84a2.64,2.64,0,0,1,.64-0.32c0.06-1.51-22.77-13.16-23-13.24a10.52,10.52,0,0,0,2.23,1.43c10.17,5.35,13.18,7.94,13.2,8l-0.06.11c-2.74-.39-8.43-3-14.14-6.44a21.74,21.74,0,0,0-3.19-1.72c0.36,0.69,7.43,4.65,10.82,6.37"/><path class="cls-6" d="M419.49,716.93c1.76,10.22,11.95,11.14,15.46,6.77,3.71-4.62-7.11-15.51-10.77-15.78-2.08.15-5.72,3-4.69,9"/><path class="cls-6" d="M519.88,687.55c0.59,1.57,1.05,2.8,2.23,3.06a3,3,0,0,0,3.16-1.87,2.9,2.9,0,0,0-2.69-3.86c-2.59-.1-2.91,2.09-2.69,2.67"/><path class="cls-6" d="M799.22,833.15c8.82-7.9,9.34-8.38,11.74-10.67l-10.54,9.78-0.07.06c-0.7.61-2.77,2.39-3.08,2.62,0.15-.16.28-0.3,1.95-1.8M833.53,798c0.13-.18,7.13-7.52,7.18-7.56a25,25,0,0,1-1.92,2.6C840,792,841,790.68,842,789.5c-0.89,1.15-.89,1.15-12,13.59L812.51,821l0.64-.62c0.14-.13,13.84-13.53,20.37-22.34"/></g></g><g class="cls-3"><g class="cls-7"><path class="cls-5" d="M780.81,834.43c2.2-2,3.55-4.17,3.24-4.74a1.38,1.38,0,0,0-.58,0,8.18,8.18,0,0,0-1.21.58L774,834.92c-0.41.33-17.62,15.54-18.41,16.27a4.45,4.45,0,0,0-1.44,2.11l0.14,0.09c0.32-.08.8-0.2,3.45-2.1,5.29-3.78,10.79-7.24,16-11.08,0.2-.14.45-0.35,0.64-0.5,1.09-.9,1.56-2.31,2.65-3.21s2.66-1.1,3.75-2.07m36.1-33c1-1,1.84-2.42,1.35-2.51s-0.75.51-1.25,0.39c-0.31-.08,0-0.77.26-1.22s0.72-1.44-.15-0.91a6.43,6.43,0,0,0-1.48,1.35l-0.27.37c-0.54.74-1,1.56-1.49,2.3-1.07,1.46-2.27,2.81-3.33,4.28-0.73,1-1,1.82-.68,1.86,0.56,0.06,7-5.84,7-5.9M144.39,756.51l-0.25-.46,0,0.12c-0.58,1.6-.55,1.68-0.36,2.12a14.25,14.25,0,0,0,2.69,3.21,22.6,22.6,0,0,0-2-5M813.14,788.8a30.33,30.33,0,0,0-6.66,8.75c-0.86,1.7-1.21,2.4-10.77,10.21-6.24,5.09-9.09,4.8-11.38,4.56,2.25-2.18,4.32-4.39,2.76-5.33-0.36-.22-0.76-0.46-0.19-1.25a35.71,35.71,0,0,1,2.67-2.6c1.07-1.2,1.73-2.69,2.78-3.91,0.37-.43.89-1,1.3-1.35,2.61-2.52,11.6-7.78,11.69-7.83,0.91-.52.91-0.52,2.26-0.23,0.35-.12.35-0.12,1.31-1.16,3.06-3.3,3.57-2.6,3.76-2.34,0.32,0.45.17,1.14,0.73,1.47a1.38,1.38,0,0,0,1.16-.35c-0.43.41-1,.94-1.43,1.35m6.07,3.09a5.14,5.14,0,0,0,.94-1.25l-0.22-.27a3.46,3.46,0,0,1-.83,0c-0.27-2.44,2.49-2.79,3.15-4.59a31,31,0,0,1,1.81-4.42c1.77-3.51,1.71-3.77,1.58-4.35l-0.41,0c-3,1.36-5.07,4-8.08,5.31-3.62,1.56-7.78,1.26-11.29,3.2-4,2.2-4.2,2.36-15,10.45a8.5,8.5,0,0,0-1.42,1.41c-1.21,1.48-3.23,4-4.54,3.61-0.53-.14-0.6-0.85-1.17-0.95a3.15,3.15,0,0,0-1.66.46,25.82,25.82,0,0,0-6.86,5.35,5.58,5.58,0,0,0-.57.71l-0.4.62c-1,1.55,1.24,3.27-.25,4.8-2,2-5.08,2.84-6.37,5.67-0.34.74,1.54,1.42,1.56,1.43,4.1,1.28,6-2.73,9.12-3.8,2.2-.76,4.42.4,6.63-0.08,1.79-.4,3.72.15,5.44-0.78a5.62,5.62,0,0,0,1-.65c1.22-1,1.23-1.4,1.23-1.87,0-.73.63-1.43,1.84-2.08,2.67-1.43,2.67-1.43,14.05-11.21,3.23-2.77,7.72-3.55,10.7-6.71m-36.8-6s2-3.17,1.54-4.36c-0.63-.19-1.78.36-1.88-0.55-0.07-.67.43-1.43,1.51-3.1s0.83-1.9.1-1.81a4.25,4.25,0,0,0-1.61.7c-1.11.85-1.82,2.08-2.9,3a52.57,52.57,0,0,1-5.75,4.08,26.07,26.07,0,0,0-4.78,3.73,1.43,1.43,0,0,0-.3.67c0,0.77.32,1.49,0.34,2.26,0,1.54-.57,3-0.58,4.53,0,1.06.5,2,.53,3.08,0.14,3.69-4.33,3.91-5.17,6.87a0.54,0.54,0,0,0,.11.62c1.17,0.64,1.76-.68,2.7-0.83a18.45,18.45,0,0,0,2.11-.06,2.61,2.61,0,0,0,1.22-.78,3.26,3.26,0,0,0,.27-0.33c2.39-3.37,3.53-7.44,6-10.75,1.91-2.56,4.73-4.26,6.52-6.93M130.6,742.18c-1.08-2-4.46-6.44-4.88-6.54l0,0c0.07,0.39.25,0.74,0.31,1.13a1.26,1.26,0,0,1,0,.77,0.27,0.27,0,0,1-.27.1c-0.27-.07-0.48-0.27-0.75-0.34-0.16.2,0.55,1.69,2.5,3.83a15.19,15.19,0,0,0,4,3.32,0.33,0.33,0,0,0,.1,0c0-.19,0-0.49-1-2.29m677.29,35.33a18.16,18.16,0,0,0,3.5-7.43,5.6,5.6,0,0,0,0-1.46l-1-3.73a1.07,1.07,0,0,0-1.23-.69c-0.16,0-.37.06-0.53,0.09s-5.32,2-5.92,2.66a10.39,10.39,0,0,0-1,1.21l-3.45,5.36c-0.56,1.07.18,1.42,0.21,1.43,0.53,0.24,1.26-.58,1.85-1.23a7.84,7.84,0,0,1,1.86-1.73c-2,4.22-3,6.33-6.6,9.05-0.06,0-4.65,4,0,2.49,1.42-.46,2.41-1.9,4.08-1.8a0.85,0.85,0,0,1,.56.26,2.51,2.51,0,0,0,2.75,0c2.41-1.17,4.91-4.33,5-4.46M125.8,726.85c-0.44-1.07-1.52-2.79-2-2.9a1.8,1.8,0,0,0-.6,1.31,6.35,6.35,0,0,0,.82,2.28,40.92,40.92,0,0,0,6.06,8.69,0.3,0.3,0,0,0,.27.12c0.09-.26-0.21-1-2.1-4.6-1-1.86-1.85-3.48-2.43-4.9m-4.1-11.6a11.36,11.36,0,0,0-1.85-2.74,17.58,17.58,0,0,0-2.8-2,0.34,0.34,0,0,0-.3-0.08c-0.34.58,1.41,3.73,2.26,4.88s2.54,2.38,2.95,2.2,0.16-1.29-.26-2.23M85.24,655.37c-0.62-1.9-1.26-2.62-1.54-2.75-1.68-.6.58,4.38,0.6,4.43,0.47,1,1.34,1.87,1.51,1.32a7.32,7.32,0,0,0-.57-3m-16.51-36a60.16,60.16,0,0,0-2.12-7c0.31,1.81,1.1,4.13,1.57,5.9l4,13.51v0c-1.12-4.16-2.29-8.3-3.41-12.46m7,7.42c0-.16-4.23-15.67-4.89-16-0.14.21-.16,0.23,0,1,0.49,2.85,1.81,5.5,2.05,8.42,0.05,0.63-.32,1.19-0.25,1.82a31.47,31.47,0,0,0,1,4.62c0.58,2.06,3,6.91,3.66,6.92,0.22-.42.22-0.42-1.5-6.86M704.41,439a9.72,9.72,0,0,0-3.45-8.17c-7-6.48-10.83-6.26-12.08-6.18-5.24,1-9.35,6.45-5.73,9.34,0,0,10.76,6.75,12.08,7.51a12.35,12.35,0,0,0,3.88,1.71c2.41,0.57,5-.51,5.3-4.21M585.87,328.61c0-7.18-1.43-9-2-9.71-3.31-4.22-10.15-3.66-12.48-9.21-2.65-6.31-2.65-6.31-5.37-6.31-10.78.82-11.88,15.11-11.89,15.26-0.16,2.8,1.12,5.45.83,8.26s-1.86,5.65-1.33,8.69c1,5.93,7.14,8.94,8.46,14.71,0.94,4.14-.06,7.14-1.13,10.32a6.39,6.39,0,0,0-.36,3.4,5.17,5.17,0,0,0,1.87,2.58c0.09,0.07,10.1,6.1,16.53,3.59,4.24,2.2,9.18-5.78,7.15-11.55-0.56-1.59-2.32-2.39-2.7-4.1-0.1-.44-0.42-9.64-0.42-9.72-0.06-5.58,2.81-10.65,2.82-16.22m-89.69-90.45c0.36-1.1.62-1.89-7.46-5.85a4.37,4.37,0,0,0-4.05.2c-3,1.68-3,1.68-4.32-.34-2.57-4-4.5-4.11-6.79-3.09-5.93,2.65-5.45-8.14-11.15-8.09-2.55.31-4.33,2.33-6.71,3-1.39.4-1.39,0.4-8.33-.4-15.13-1.75-18.72,8.18-19.28,10.19-0.78,2.78-.2,5.89-2,8.43s-5,2.68-7.18,4.48a3.55,3.55,0,0,0-1.07,2.24c-0.08,1.33.66,2.51,0.73,3.81,0.08,1.5-2,3.19-.29,4.48,2.29,1.75,5.42,1.84,7.58,3.83a15.34,15.34,0,0,1,5.06,7.82c1.58,5.35,1.58,5.35,1.83,5.54,1.32-1.36.83-3.43,1.91-4.89,1.16,0.44,1.9.81,2.57,2.8,0.53,1.56,2.13,6.32,9.18,4.1a12.09,12.09,0,0,0,4.14-2.06c3.69-3.08,5.1-8,8.83-11,2.08-1.69,5.06-.07,7.09-1.94a1.76,1.76,0,0,0,.25-2c-0.86-2.09-1.75-4.26.89-5,3.57-1,6.37,1.54,9.6,2.12,2.39,0.43,6.4,1.16,8.71-1.09s10.23-17.27,10.26-17.38m-250.89,619c2.6,2.42,2.61,2.93,2.61,3.18-1.49.13-2.61-1.52-4.21-.89-0.57.22,0,1.13,0.22,1.52a1.06,1.06,0,0,1,.28.83c-1,.34-14.39-7.63-28.31-19.85,1.45,0.34,2.33,1.6,3.61,2.21-0.28-.41-0.28-0.41-2.33-2.24s-2.27-2.07-2.35-2.36c0.06,0,8.42,1.89,12.95,4.5,5.64,3.26,14.94,10.69,17.53,13.09m489.44,5.69c-0.14.11-14.43,9-14.43,7a3.43,3.43,0,0,1,.5-1.24c0.19-.36.64-1.19,0.23-1.39a1,1,0,0,0-.42-0.06c-1.4.08-2.44,1.16-3.79,1.37-0.79.12-.67-1.07-1.43-1,1.26-.78,2.76-1.09,4-1.93s1.68-1.59,1.41-1.78a4.72,4.72,0,0,0-1.92.44,12.5,12.5,0,0,1-2.63.63,1.4,1.4,0,0,1-.62-0.15,1.53,1.53,0,0,1,.69-1.08c1.42-1.42,3.15-2.48,4.61-3.85,0.82-.77,1.33-1.8,2.19-2.53,0.38-.32,3.91-2.71,4.44-2.68,0.85,1.93-1.32,4.59-2.14,5.6-1.54,1.89-3.86,4.74.18,4.49,1.9-.12,4.56-1,7.91-2.76s1.75,0.52,1.22.92M853.44,757.37c-0.4.51-8.63,7.09-8.7,7.13s-0.81.39-.91-0.93c-0.14-1.82.18-2.29,0.54-2.84,0.69-1,3.31-4.15,3.82-3.76a0.3,0.3,0,0,1,.08.16c0.16,0.79.39,1,1,1,1.07-.35,2.18-1.19,5.23-4.79a3.9,3.9,0,0,1,1.08-1.07l0.07,0a14,14,0,0,1-2.17,5.09M805.8,745.55a20.89,20.89,0,0,1-3.59,4.08,7.23,7.23,0,0,0-1-3.24,1.71,1.71,0,0,1-.2-1.84c0.3-.92,3-4.8,4.16-4.12a4.47,4.47,0,0,1,.62,5.11M842,731c-1.75,2.12-2.71,2.9-3.79,3.08a1.61,1.61,0,0,1-.91-0.18c2.15-2.38,3.41-3,5-3.22L842,731m-12,72.14L812.51,821,811,822.46l-10.56,9.81c-0.94.74-.94,0.74-3.12,2.51,2.67-2.71,5.7-5.05,8.16-8-3.09,1.37-5,4.18-7.49,6.25,0.61-1.59.61-1.59,2.19-3.42l-27.38,23.56c2.92-1.1,10-6.4,10.07-6.46-0.16.14-16.27,13.82-29.48,21.62,0.32-.32.32-0.32,6.1-5.78-4.64,2.37-8.26,6.15-12.46,9.12,3.9-4.22,8.51-7.71,12.34-12-0.09-.64-0.09-0.64-0.09-0.64h0c3.7-5.25,9.64-9.55,34.64-27.62,0.5-.36,54.7-51.61,57.11-60.08-17.15,15.6-30.7,34.64-47.94,50.16L739,872.23l0.79-1a24.45,24.45,0,0,0-2.57,1.15c-1.1-8.63,9.47-8,12.43-13.66-2.6-.15-4.39,1.83-6.68,2.51l-0.54-1c3.58-6.65,11.9-8,15.89-14.14l-1-.41c-11.58,5.28-13.34,4.9-14.1,4.75,1.16-3.67,5.39-4.86,6.74-8.37-2.68-.2-4.75,1.69-7.24,2.15,0.13-1.2,1.85-3.4,15.34-19.62-1.77-.57-1.77-0.57-9.34,6.62-4.59,4.37-4.59,4.37-8.9,5.73,0.3-1.73,1.63-2.89,2.39-4.36-2.32-.11-7.28,1.77-8.87,5.9l0.65,1c-0.38.76-1,2-3.74,2.85-3.46-2-16.69,13.14-16.7,13.36-0.4,5-6.2,9.33-6.26,9.37-0.1-.13-0.1-0.13-11,2.25a8.25,8.25,0,0,0-.83-0.71c-1.66-1-3.43.82-5.09-.19-2.35-1.42-2-5.16-5.05-6-1.23-.32-7.61-6.47-7.66-6.52a22.58,22.58,0,0,0,.67-3.74c-3.84-3.46-9.35-2.4-13.5-5,0.56-3.1,17.6-15.39,17.75-15.42,8.7,9,21.73-12.13,21.73-12.49a3.48,3.48,0,0,0-1.57-2.61c-4.79-2.49-10.36-3-15-6-2.74-1.74-7.54-.52-8.32-5-1.06-6.18,3.22-10.83,4.65-16.29,1.7-6.5,2.87-9.61,5.19-13.86,13,7.15,13,7.15,14.78,6.41,10.7-4.42,14.6-16,23.58-22.28a4.56,4.56,0,0,1,1.05,2.2c1.35-.25,2.16-1.39,3.32-2,2.25,0.9,2.25.9,3,.94,2.65-.27,2.65-0.27,25.26-24.09,1.62-1.71,9.89-10.18,13.81-9.61,4.53,9.43-4.08,18.65-.45,28.06,0.41,1.06.41,1.06-6.43,10.89-1.26,1.81-1.26,1.81,1.54,8.1-2.4,3.35-7.17,3.56-9.42,7.11l0.88,0.71,0.69-.2c3.68,0.46,7.29-.81,13-8.53,3.15-4.28,4.07-4.51,5.33-4.83,3.29-.83,6.18,1.78,9.45,1.13a4.8,4.8,0,0,1,.56,2.39l1,0.61c1.22-.75,11.85-7.48,10.87-11.95-0.13-.61,0-1.66,2.29-1.9,0.71,1,.62,2.28,1.07,3.38,0.94-.09.94-0.09,4.24-1.93a3.17,3.17,0,0,1,1.13,1.72c2.75,0.2,3.71-2.72,5.94-3.41l0.73,1c7.6,1.19,7.12-8.33,12-11.09,0,0.73,0,.73-1.23,3.39l0.67,0.85L840,739.57l0.06,1.2,1.15,0.43c3.24-1.79,5.75-4.64,9.13-6.22,0.88,0.55.88,0.55,4.51-.36,4.33,18.31-20.25,20.18-20.43,35.92l0.86,0.66c-0.23,1.07-.23,1.07-2.41,4.73,2.23,1.21,2.23,1.21,20.56-16.11l0.84,0.69c6.82-7,4.25-19.89,15.24-24.27l0.87,0.84a6.29,6.29,0,0,0-.16,2.46c3.76-1.83,5.45-5.72,8.35-8.4,0.39,2.2-2.35,7-8.14,14.39-9.22,11.69-9.22,11.69-11.28,15.68,1.1-.37,1.1-0.37,6.22-6.28-0.29,1.31-2.3,8.52-13.13,21.86l-0.08.07h0c-5.69,6.64-11,13.58-16.72,20.23,1.59-1.77,2.12-2.36,4-4.56L830,803.09M94.21,614.48c-2.17-2.5-2.82-1-3.44,1.23-0.7,2.5-1.31,2.63-2,2.54-1.94-.74-6.8-7.79-8.91-14.76-2.22-7.33-2.44-21.09-2.18-21.87l0.22-.06a1.35,1.35,0,0,1,.31.27,54.83,54.83,0,0,1,1.67,6.32c0.73,3.37,2.14,9.32,3.47,11.31a4.09,4.09,0,0,0,3.57,1.87c2.06,0.18,3.53,2.31,4.4,4.06a35.85,35.85,0,0,1,2.92,9.08m14.53-39.28a11.55,11.55,0,0,1-.59,3.94,20.55,20.55,0,0,0,.71,15.11c2.49,6.08,2.49,6.08,1.8,10.43,0,0.16-2.91,15.65-8.35,10.58-5.29-4.93-6.18-10.15-7.94-20.55-0.83-4.91.64-7.31,1.43-8.59,0.4-.64.94-1.53,0.64-4.25-0.35-3.15-2.08-6-2-9.26A0.51,0.51,0,0,1,95,572a2.81,2.81,0,0,1,1,.58c2.7,2.14,2.3.12,1.33-4.76-0.92-4.64.17-4.36,2.57-3.73,4.92,0.66,4.92.66,5.61,1.51a21.47,21.47,0,0,1,3.24,9.57M237.83,861.38c4.35,3.28,5.24,4,5.69,4.5-0.88-.28-1.2-0.5-6.55-4.2,0.3,0.24.35,0.29,1.64,1.22l-20.19-15.44c-11.67-10.21-27.16-23.93-38.22-34.79,18.79,19.13,31.14,28.55,51.6,44.14,1.77,1.35,2.26,1.72,6,4.58M176.71,761c2.33,6.87,1.41,14.25,3.36,21.18-1.12.45-1.12,0.45-8.68-2.82,0.11,1.5.24,3.19,13.49,18.11,2.32,2.61,2.32,2.61,9.61,16.24-0.22,0-.22,0-4-0.44,0,2.22,3.87,8.43,6.18,11.93-1.44-.62-22-17.88-34.92-32.58-11.21-14-25.77-32.88-36-47.55-23.9-39.53-23.9-39.53-33.59-60.81-17.65-43.2-17.65-43.2-23.94-66L61,588.26c1.36,6.41,3.71,15.72,4.57,18.1-0.11-9-1.28-17.9-.59-26.89,2.37,2,2.84,5.08,4.51,7.47a6,6,0,0,0,2.35-1.05c8.34,9.67,6.48,22.83,11.51,33.64,2.19,4.71,2.19,4.71,13.6,26.29,2.24,4.24,2.27,4.27,3.82,5.67,2.8-.46,6-1,15.41,12.64,11.48,16.56,16.2,36.25,25,54,11.07,22.26,11.07,22.26,17.91,28,17.5,14.68,17.5,14.68,17.58,14.87M360.19,161.3a8.36,8.36,0,0,1-2.9,2.34c-0.26.11-.6,0.26-0.87,0.36l-10.11,3.45c-1.76.55-2.69,0.25-2.76-.91-0.08-1.44,1.72-2.74.39-4.26s-2.62.26-3.94,0.23c-0.65-.12-0.65-0.12-0.37-2a5.1,5.1,0,0,1-2-1.11c0.2-2.7,8.69-11.51,8.78-11.59,3.62-3.4,8.19-5.36,12.21-8.15,6.41-4.43,10.1-3.55,11.16-2.47a4.22,4.22,0,0,1,.62,4.17c-1.66,4.2-6,6.64-7.23,11.14-0.57,2.15-.42,4.46-1.47,6.51a13.2,13.2,0,0,1-1.48,2.34m348.3,47.56c1.57,6-6.06,8.42-5.38,14.06,0,0.15,8.59,15.26,9,15.85-1.77,5.63-.1,12.13-4.31,17.15,0,0,0,0,6,6.59a45.58,45.58,0,0,1-3.3,4.61l0.6,2.72C737,286,737,286,737.8,300c-16.25,15.49,7.41,31.08,5.78,47.27,0,0.12-2,11.19-10.55,5.61-13.83-9.06-21.76.13-26,9.44l-4,14.37c0.08,2.64.8,11.35,6.6,12.73,2.67,0.64,6,1.43,21.92,22.8,7.14,9.59,5.43,22.14,10.77,32.33,0.36,0.69-1,48.8-24.59,36.25-3-1.61-11.65-5.21-15-4.54-8.05,1.6-7.81,18.08-17.13,13.63-12.37-5.9-12.37-5.9-13.56-1.48-0.62,2.3-2.06,7.69-16.14,8.52-6.89.4-12.38-5.34-19.39-4.41l-37.89,12c-3.25,25.27-12,21.38-24,13.12-13.68-9.39-20.56,11.32-31.21,16.27l-36.1,13c-13.66-21.83-6.12-50.43-22.76-71.31-8.52-.2-50.45-26.41-50.62-26.67C410.7,411.81,420,385,423.36,377.71c5.48-11.83,2.76-16.26-7.08-26.89l-2,1.87c1.45,11.34-11.28,17.78-11.82,18-8.5,4.21-17.81,6.15-26.64,9.43-15.36,5.71-29.05-12.45-44.66-3.1-12.21,7.31-8.67,28.8-27.3,30.32h-0.1c-20.4-2.8-20.4-2.8-52.06,11.14-5-2-12.3-10.76-11.93-17.82a16.71,16.71,0,0,1,.55-2.53c1.12-4.86,6.67-6.73,7.79-11.59,1-4.42-4.06-7.71-2.26-12.26,2.31-5.86,4.79-8.94,9.82-14,1.85-1.87,4.15-4.21,4.31-7.21l-4.94-28.81c-17.61-11.41,2.62-21.75,2.84-21.85,20.09-9.07,20.09-9.07,35.27-31.77a10.94,10.94,0,0,0-4.19-4c-0.23-.92-0.23-0.92,2.23-10.73-18.94-22.47,7.59-31,7.86-31.09,8.11-16.06,8.73-35,19.15-50.15,4-5.77,6.59-6.2,21.18-8.6l2.15,1.91a36.26,36.26,0,0,0,.14,5.18c2.56-.25,2.56-0.25,16.27,16.59,6.49,8,14.06-5.11,21.67-2.37,7.73-5.31-2.9-13-3.56-19.58-1.08-10.9,6-14.66,14.18-19s8.52-4.44,12-4.68c5.63,5.83,12.06-2.74,12.08-2.88,2.84-21.6,14.68-18.59,14.79-18.54,0.42,1.53,1.08,3.53,1.66,5,3.29-1.79,4.54-5.55,7.43-7.72,7.44,2.55,7.44,2.55,12.93,2l0.45,2.53c-3.2,4.44-3.2,4.44-.29,11.11-2.44,3.17-6.21,4.92-8.64,8.1,1.23,3.4,1.23,3.4,2.08,8.58l2.42,1.31c10.74-7,28.31-4.16,28.49-4.13,8.51-7.68,2.65-29.56,18.24-27.82,15-2.71,15-2.71,20.53,4.34l-0.79,2.43c8.07-1.83,16.52-1.58,24.41-4.4,15.17,7.55,31.45.13,46.92,3.5,12.17,2.65,45,12.36,52.75,16.22,33.28,16.58,70.66,64.81,70.77,65.17M588.77,59.26a362.8,362.8,0,0,0-70.47-7,362.8,362.8,0,0,1,70.47,7c-14-2.62-14-2.62-21.35-3.73-9-1.27-9-1.27-13.43-1.81-6.32-.72-6.44-0.73-9.6-1-2.27-.2-5.29-0.49-7.56-0.67-1.92-.14-4.49-0.34-6.41-0.47-1.73-.1-4-0.25-5.78-0.35s-3.85-.19-5.51-0.26-3.87-.15-5.53-0.2-4.11-.1-5.87-0.13c-2,0-4.64-.06-6.63-0.06-18.85.24-68.4,2.32-121.29,16.47-37.49,11.91-41.4,13.15-67,24.65-39.75,20.2-40.51,20.59-61,34.18-36.37,26.33-37.07,26.83-54.53,42.82C164.67,201,164.67,201,150.05,219.23c-27.43,37.13-27.43,37.13-39,57.42C89.46,318,89.46,318,81.09,340c-14.73,44.09-15,44.93-19.83,68.46-7.66,47-7.81,47.91-8.8,72.64,0,20.13.79,47,2.3,67,7.07,47.13,7.07,47.13,13.42,70.14,14.21,44.54,14.21,44.54,23.94,66,20.75,41.29,20.75,41.29,33.59,60.81,26.71,37.38,26.71,37.38,42.38,54.71,31.41,32.15,32,32.76,50.32,47.64,35.76,26.83,36.45,27.34,57.52,39.62,36,19.16,38.89,20.72,64.22,30.67,25.2,8.93,39.08,13.84,72.19,20.85,14,2.62,14,2.62,21.35,3.73,9,1.27,9,1.27,13.43,1.81,6.44,0.73,6.44.73,9.6,1,2.27,0.2,5.29.49,7.56,0.67,1.92,0.14,4.49.34,6.41,0.47,1.73,0.1,4,.25,5.78.35s3.85,0.19,5.51.26,3.87,0.15,5.53.2,4.11,0.1,5.87.13c2,0,4.64.06,6.63,0.06a495.74,495.74,0,0,0,87.87-8.51c32.25-7.43,39-9,69.93-19.88,39.92-16.67,41.47-17.32,63.81-29.85,38.1-23.58,38.83-24,57.64-38.91,34.14-29.28,34.79-29.84,50.75-47.07,29.93-35,29.93-35,43-54.34,24.37-39.45,24.37-39.45,34.29-60.72,18.14-43.33,18.14-43.33,24.65-66.21,10.7-44.33,12.91-56.14,16.72-105.12,0-48.93,0-48.93-3-73.11-7.7-46.93-7.7-46.93-14.34-69.82-14.78-44.29-14.78-44.29-24.79-65.56-21.28-41-21.28-41-34.37-60.33-27.18-37-27.18-37-43.08-54.15-31.81-31.73-32.42-32.34-51-47-36.08-26.33-36.77-26.84-58.1-38.9C684.07,89.26,681.13,87.75,655.22,78c-20.47-7-38.15-13-66.45-18.7"/><path class="cls-6" d="M704.41,439c-0.34,4-3,4.23-4.1,4.34a8.92,8.92,0,0,1-4.27-1.38c-2-1.08-12.87-7.94-12.89-8-0.85-.84-3.09-3.07.88-6.81,1.17-1.1,4.73-4.45,10.33-1.2,10.64,6.17,10.24,10.79,10,13M585.87,328.61a18.36,18.36,0,0,1-1.3,7.19c-1.28,3.66-2.06,5.87-1.16,18.28a2.72,2.72,0,0,0,1.06,1.93c2.88,2.89,2.12,7,1.81,8.23-1.7,6.7-6.07,6.69-11.13,6.68-2.23-.2-12.32-2.93-14.15-5.94a3.85,3.85,0,0,1-.38-1,6.26,6.26,0,0,1,.36-3.4c1-3,2.51-7.49.36-12.72-1.86-4.54-6.52-7.33-7.69-12.31a6.13,6.13,0,0,1-.13-1.49c0.12-2.8,1.43-5.39,1.53-8.19,0.1-3-1.25-5.92-.62-9,0-.08,2.57-9,5.42-11.22,0.06,0,5.93-4.27,9.33-1.28,2.65,2.33,2.09,6.39,4.74,8.72,3.24,2.84,8.15,3,10.78,6.82,0.61,0.89,1.18,6.47,1.18,8.62m-89.69-90.45c0,0.12-8.34,15.86-10.26,17.38-1.42,1.13-4.08,3.23-16.09-.81-3.28-1.1-4,1.46-4.07,2-0.33,1.66,2.21,3,.72,4.72a3.77,3.77,0,0,1-2.58.79c-2.52.07-4.33,0.33-6.43,3.08-7.16,9.34-7.16,9.34-8.13,9.94-0.08.05-8.58,4.75-11.54-1.4-1.82-3.78-1.82-3.78-3.13-4.28-1.08,1.46-.58,3.53-1.91,4.89a3.93,3.93,0,0,1-.65-0.6,4.18,4.18,0,0,1-.55-2,16.8,16.8,0,0,0-4-9.21c-2.64-2.93-5.42-3.91-8.37-4.94-0.9-.32-1.94-1-1.76-2.21a5.09,5.09,0,0,1,1-1.51c1.37-2.17-1.74-4.06-.39-6.22,1.63-2.62,5-2.55,7.05-4.47,2.4-2.2,2.53-5,2.63-7,0.33-7.06,7.51-12.06,12.56-13,4.26-.76,8.35.69,12.53,1,3.9,0.06,6.46-4.2,10.62-3.27,1.83,0.41,1.83.41,5.83,6.3,2,2.89,4.89.7,7.28,1.31,2.85,0.73,2.54,4.55,5.29,5.37,0.49,0.15.88,0.09,1.63-.61a4.59,4.59,0,0,1,5.26-1.13,7,7,0,0,1,1.88,1.17c1.64,1.28,3.79,1.65,5.39,3a1.58,1.58,0,0,1,.18,1.68m212.31-29.3c-0.13-.36-37.25-48.38-70.26-64.82-12-6-49.15-15.68-53.27-16.57-15.48-3.37-31.76,4-46.92-3.5-7.89,2.82-16.34,2.57-24.41,4.4l0.79-2.43c-7.75-9.86-9.27-10.08-11.56-10.4-11.44,5.72-11.44,5.72-14,5.48-8.49,7.5-5.17,20.31-12.7,28.25-19.23-1-19.23-1-29.38,4.36-2.83-2.37-2.83-2.37-3.94-10.67,7.66-6.24,7.66-6.24,9.07-8.5a14.73,14.73,0,0,1-3.08-5.3c0.9-1.62,2.1-3.78,3-5.39l-1.72-1.93c-5.27,1-6.51,1-10.34-1.86-3.18.54-3.51,0.6-7.1,7.05l-2.48-.87a25.88,25.88,0,0,0-2.18-4.62c-2.89.16-6.85,0.38-14.72,15.45,2.88,9-6.19,9.91-9.86,8.18-10.53-5-29.91,10.22-26.6,24.57,9.88,5.1,4.87,16.57,3.8,17.15-1.3.71-3.57-.26-4.82-1.06C358,190.19,358,190.19,354,179.63c-4.4-1.82-7.11-6.81-12.54-6.7a27.46,27.46,0,0,0-.39-6.13c-9.25-2.63-19.78,3.62-22,6.75-11.1,15.34-11.61,34.79-19.91,51.21-11.21,3.28-22.78,17.27-8,30.29-0.19,3.74-2.42,7-2.59,10.75a42.41,42.41,0,0,1,4.69,4c-0.15.31-19.53,31.07-28.95,31.51-2.84.13-11.49,0.54-16,12.4a8.89,8.89,0,0,0-.56,2.83c0,2.93,2.4,4.45,6.75,7.22,2.4,1.52,2.4,1.52,5.6,27.94,1.67,13.75-16.47,20.94-11.81,35.68-10.88,20-11.54,21.19,2.42,31,17.84-3.18,34.16-13.64,53.2-11h0.1c14.45-1.18,15.3-15.39,15.3-15.54-0.26-6.39-.26-6.39,13.73-15.88,15.48-10.49,27.94,9.77,42.94,4.19,8.83-3.28,18.17-5.12,26.64-9.43,10-5.08,10.75-10,12.31-19.85a19.43,19.43,0,0,1,8.53,8c7.39,13-5.2,23.48-4.46,35.64,0.78,12.86,3.45,25.49,4.69,38.3,0.39,4,1.07,8.11,4.78,10.73l52.33,32c6-.46,11.52,9.61,11.58,9.71a13.29,13.29,0,0,1,1.49,4.43c0.06,0.58,9.36,58.44,17,59.34,0.07,0,8.07,0,16.25-8.87,2.06-2.23,5.17-5.59,38.72-22.19,0.92-.45,2.14-1.06,3.09-1.45,8.76-3.62,12.65,10,21.5,6.08,8.69-3.84,1.64-18.18,12.64-20,4.88,3.73,4.88,3.73,7.38,3.35,12.57-1.93,20.54-19,36.13-11,10.52,5.36,10.52,5.36,27.47-11.1a6.94,6.94,0,0,1,2.87-1.2c6.29-1.65,5.12,9.25,11.43,7.71,7.59-1.86,5.74-13.46,14.54-14.07,5.61-.39,14.93,4.49,15,4.54,7.23,3.85,8.15,3.51,10.89,2.48,0.19-.07,16.67-23.65,15.38-33.53l-11.55-36.27-21-23.65c-3.53-1.08-7.92-2.43-8.32-11.67-0.24-5.62,4.31-16.75,4.36-16.85s9.23-19.61,23.77-9.61c13.14,9,12-9.05,12-9.25-1.76-9.19-9.24-16-10.52-25.41,0-.11-1.45-11.25,4.82-16.42,0.88-19.59.88-19.59-25.89-30.13l-1.19-2.76a27.82,27.82,0,0,1,3.41-4.52c-1.71-2.4-4.16-4.13-5.91-6.5,3.09-5.3,1.88-11.64,4.11-17.15-9.15-18.1-9.15-18.1-9.34-19.46,7.39-6.26,6.22-9.84,5.78-11.19"/><path class="cls-6" d="M360.19,161.3a8.36,8.36,0,0,1-2.9,2.34c-0.26.11-.6,0.26-0.87,0.36l-10.11,3.45c-1.76.55-2.69,0.25-2.76-.91a5,5,0,0,1,.32-1.59c0.67-2,.94-3.58-2.67-2.61-1.92.52-1.89,0.29-1.57-1.88a5.1,5.1,0,0,1-2-1.11c0.23-3.14,9.85-12.57,10.29-12.9,1.78-1.36,13.15-8.38,13.22-8.42,3.27-1.68,5-1.79,6.54-1.76,3.85,0.54,2.94,4.3,2.72,5-1.32,4.42-6,6.64-7.23,11.14-0.57,2.15-.42,4.46-1.47,6.51a13.2,13.2,0,0,1-1.48,2.34"/><path class="cls-6" d="M144.39,756.51a24.78,24.78,0,0,1,2.06,5H146.4a14.65,14.65,0,0,1-2.65-3.21c-0.19-.46-0.22-0.54.4-2.24l0.25,0.46m-13.8-14.33c1,1.81,1,2.1,1,2.29a12.88,12.88,0,0,1-3.78-2.91c-2.62-2.79-2.94-4.07-2.9-4.21a1.34,1.34,0,0,1,.58.27c0.66,0.19.71-.22,0.21-1.83a0.16,0.16,0,0,1,0-.16c1,0.74,4.12,5.1,4.89,6.54m-4.79-15.34c0.59,1.43,1.44,3,2.43,4.9,1.89,3.56,2.19,4.34,2.1,4.6h-0.07c-0.74-.37-4.25-5-6-8.32a9.75,9.75,0,0,1-1.06-2.57,1.72,1.72,0,0,1,.53-1.51c0.45,0,1.6,1.77,2.07,2.9m-4.1-11.6c0.11,0.25,1,2.4,0,2.23a6.77,6.77,0,0,1-2.92-2.58c-0.36-.52-2.36-3.87-2-4.5a0.34,0.34,0,0,1,.3.08,17.58,17.58,0,0,1,2.8,2,11.36,11.36,0,0,1,1.85,2.74M85.24,655.37c0.26,0.81,1.06,3.45.23,3.16a4.75,4.75,0,0,1-1.6-2.51c-1.2-3.25-.74-3.36-0.59-3.4,0.81-.21,1.51,1.38,2,2.75m-16.51-36c1.12,4.15,2.49,8.23,3.41,12.44l-4-13.51-1.54-5.73,0-.1c0.16,0.25.66,1.47,2.12,6.9m7,7.42c1.77,6.57,1.77,6.57,1.46,6.88l-0.1,0a26.89,26.89,0,0,1-3.53-6.92c-0.9-3.25-1.16-5.22-.77-5.85a1.65,1.65,0,0,0,0-1.16c-0.46-2.67-1.5-5.19-2-7.85a2,2,0,0,1,0-1c0.78,0.61,4,12.36,5,16m162.1,234.56c-1.8-1.36-4.27-3.23-6-4.58-20.46-15.59-32.8-25-51.6-44.14,11.26,10.66,26.37,24.8,38.22,34.79l20.19,15.44-0.27-.19-1.29-.95c2.08,1.33,4,2.89,6.2,4.05-0.72-.87-0.72-0.87-5.42-4.42M176.71,761c-3.95-8.72-13.46-10.88-19.79-16.8-4.22-3.95-4.22-3.95-16.6-27.83-8.84-17.06-13.12-36.23-24.15-52.28-3.8-5.54-10.76-14.52-14.63-12.5-1.92-.9-2-0.95-4.6-5.81-12.89-24.38-12.89-24.38-15.56-30.63a104.79,104.79,0,0,1-6.79-22.54c-1.12-5.49-1.92-6-2.93-6.74l-1,1.06-1.42-.25c-1.37-2.14-2.32-4.49-3.5-6.72l-0.93,1c0.46,8.31.29,16.64,0.77,25C64.22,603.21,61,588.4,61,588.26l7.19,30.08c14.21,44.54,14.21,44.54,23.94,66,20.75,41.29,20.75,41.29,33.59,60.81,10.4,14.56,24.69,33.71,36,47.55l0.36,0.41c12.72,14.38,34.53,32.61,34.68,32.71-2-4.23-6.33-7.25-6.31-12.48,1,0.1,1,.1,3.91,1.21-4.28-14.21-18.13-21.93-23.86-35.15,3.14,0.46,5.7,2.38,8.62,3.4l0.88-.93c-2.6-6.7-.62-14.12-3.32-20.8"/><path class="cls-6" d="M245.29,857.16c2.6,2.42,2.61,2.93,2.61,3.18-1.49.13-2.61-1.52-4.21-.89-0.57.22,0,1.13,0.22,1.52a1.06,1.06,0,0,1,.28.83c-1,.34-14.39-7.63-28.31-19.85,1.45,0.34,2.33,1.6,3.61,2.21-0.28-.41-0.28-0.41-2.33-2.24s-2.27-2.07-2.35-2.36l0.2,0c11.29,3.64,11.29,3.64,12.75,4.49a137.41,137.41,0,0,1,17.53,13.09"/><path class="cls-6" d="M108.75,575.19a11.55,11.55,0,0,1-.59,3.94,20.55,20.55,0,0,0,.71,15.11c2.49,6.08,2.49,6.08,1.8,10.43,0,0.16-2.91,15.65-8.35,10.58-5.29-4.93-6.18-10.15-7.94-20.55-0.83-4.91.64-7.31,1.43-8.59,0.4-.64.94-1.53,0.64-4.25-0.35-3.15-2.08-6-2-9.26A0.51,0.51,0,0,1,95,572c1.06,0.16,2.59,2.27,3.07.85,0.85-2.54-.94-4.73-1-7.16s0-2.38,6.23-1.57c4,1.06,5.41,10.07,5.45,11.05"/><path class="cls-6" d="M94.21,614.48c-2.17-2.5-2.82-1-3.44,1.23-1.93,6.91-7-3.08-8.62-6.36-5.58-11.06-4.54-27.61-4.5-27.72l0.22-.06a1.35,1.35,0,0,1,.31.27,54.83,54.83,0,0,1,1.67,6.32c0.73,3.37,2.14,9.32,3.47,11.31a4.09,4.09,0,0,0,3.57,1.87c2.06,0.18,3.53,2.31,4.4,4.06a35.85,35.85,0,0,1,2.92,9.08"/><path class="cls-6" d="M780.81,834.43c-0.19.17-.45,0.41-0.66,0.56a5.75,5.75,0,0,1-1.82,1,6.19,6.19,0,0,0-1.27.5c-1.1.89-1.6,2.28-2.65,3.21a30.14,30.14,0,0,1-3.89,2.58c-1,.66-1,0.66-12.78,9-3.08,2.19-3.33,2.12-3.58,2.06,0-.65.75-1.53,1.42-2.15l17.87-15.82c1.77-1.56,2.35-1.6,3.07-1.66a8.09,8.09,0,0,0,2.66-1.47c5.13-3.44,5.53-3,4.51-1.21a14.56,14.56,0,0,1-2.87,3.4m36.1-33c-0.05.05-6,5.51-7,5.9-0.35,0-.2-0.6.35-1.45,0.17-.26.41-0.59,0.59-0.84,1-1.31,2-2.54,3-3.85a34.42,34.42,0,0,1,2-3s1.65-1.71,1.68-1a2.63,2.63,0,0,1-.33.89c-0.37.75-.68,1.46,0.09,1.16,1-.41,1.11-0.43,1-0.07a5.53,5.53,0,0,1-1.5,2.26m2.3-9.57c-1.58,1.67-6,4.68-7,4.38-0.69-.21-0.83-0.25-5.49,3.86-8.36,7.36-8.36,7.36-12.64,9.86a2.76,2.76,0,0,0-1.5,1.9c0,0.47,0,.92-1.23,1.87a5.73,5.73,0,0,1-1,.65c-1.81.92-3.81,0.54-5.71,0.84-1.68.26-3.29-.65-5-0.33a14.82,14.82,0,0,0-5,2.18c-4.16,2.6-6.54,2.91-7.08.9a1.11,1.11,0,0,1,.23-0.73c1.72-2.74,6.1-2.58,6.88-6.34a2.36,2.36,0,0,0-.56-1.57c-0.23-.39-0.83-1.41,1.06-3.51,3-3.27,7.64-6.24,8.59-5.79,0.54,0.25.78,1,1.48,1,1.11-.23,2.08-1.08,4.17-3.64,0,0,8.79-7.57,16.38-11.86,3.84-2.17,8.47-1.69,12.36-3.71,2.53-1.32,4.36-3.66,7-4.8a1.38,1.38,0,0,1,.41,0c0.13,0.57.19,0.83-1.58,4.35a31,31,0,0,0-1.81,4.42c-0.66,1.79-2.82,2.47-3.29,4.41a2,2,0,0,0,1,.21l0.22,0.27a5.14,5.14,0,0,1-.94,1.25m-36.8-6c-0.15.22-.28,0.44-0.44,0.65a8.11,8.11,0,0,1-1.37,1.19,32.31,32.31,0,0,0-6.72,8.1c-1.55,2.62-2.11,5.77-4.28,8.07a2.54,2.54,0,0,1-1.22.78c-0.76.22-1.54-.07-2.3,0.1s-1.45.73-2.27,0.83c-0.76-.05-0.42-1.17,1.14-2.52,2.06-1.78,3-2.6,3.42-3.68,0.59-1.51-.33-2.93-0.26-4.41,0-.33.07-0.77,0.12-1.09s0.13-.8.18-1.15c0.41-2.69.32-3,0-4.23-0.14-.5.11-1,0.92-1.69,0.24-.21.58-0.48,0.83-0.68,2.43-1.92,5.18-3.38,7.61-5.29,1.64-1.29,2.82-3.06,4.54-4.25,0,0,2.1-1.16,2-.18-0.16,1.68-2.09,2.43-2.21,4.14,0,0.62,0,.62,1.86,1,0.46,1.19-1.52,4.33-1.54,4.36m25.48-8.36c-0.1.13-2.6,3.28-5,4.46a2.47,2.47,0,0,1-2.91-.09,0.78,0.78,0,0,0-.4-0.14c-1.57-.09-2.54,1.15-3.81,1.71,0,0-2.15.7-2.27,0.35s0.53-1.6,1.67-2.46c3.79-2.87,4.64-4.42,7-9.33-1.27.86-1.89,2.48-3.45,3-0.56,0-.89-0.59-0.46-1.47a4.81,4.81,0,0,1,.3-0.5l4.13-6.06c0.61-.53,6.26-3,7-2.72a1,1,0,0,1,.71.65c0,0.09.07,0.22,0.09,0.31,0.06,0.31.09,0.75,0.15,1.06,0.26,1.28,1,2.45.82,3.82a18,18,0,0,1-3.5,7.43M830,803.09l9.44-10.54-0.27.31c-1.64,1.88-1.85,2.12-3.76,4.25,5.18-6,5.18-6,16-19.44l0.71-.8h0c7.08-8.47,7.55-9.44,13.27-21.35-2.57,1.54-4,4.16-6.06,6.22,2.79-12.6,17.25-17.69,19.66-30.53-3.65,2-5,6.48-8.8,8.33a6.29,6.29,0,0,1,.16-2.46l-0.59-.89c-12.47,3.46-8.3,17.57-15.58,24.35l-1-.55c-16.56,16.56-16.56,16.56-19.75,16.57l-0.39-1.1c2.26-3.06.34-7.23,2.72-10.26,3.39-4.32,8.16-7.39,11.12-12.1,1.44-2.28,3.2-4.34,4.47-6.73,0-.08,4.16-8.63,3.43-11.74a24.38,24.38,0,0,0-3.31,1.38l-0.68-1c-4.31.6-6.4,4.76-10.13,6.3l-0.73-.89c-3.31,5-3.31,5-3.78,5.36l-8.59,4.84-0.42-1.12c0.48-.8,1.11-1.88,1.55-2.7-7,.41-5,10.56-12,11l-0.73-1-1.25-.15c-4.16,3.29-4.16,3.29-5.09,3.22a3.17,3.17,0,0,0-1.13-1.72c-3.41,1.9-3.41,1.9-4,2-0.62-1.09-.57-2.42-1.3-3.47-2.3.24-2.42,1.29-2.29,1.9,1,4.69-11,12-11.09,12a4.11,4.11,0,0,1-.73-2.34l-0.87-.76c-4.72,1.7-10.67-1.4-14.5,3.72-5.73,7.65-9,8.9-13,8.53l-1,.3-0.3-1.28c2.4-3,6.16-4,9.19-6.1-1.71-8.58-1.71-8.58-.49-10,6.51-7.41,6.51-7.41,4.8-10.78-1.44-2.84-1.44-2.84.11-14.54C774.6,726,774.6,726,773.63,725H772.8c-1.82.66-2.49,0.9-7.13,4.68l-1.15,1c-5.1,4.32-17.52,15.42-22.64,25.22-2.8,5.35-9.44.17-12.58,4.6a5.52,5.52,0,0,1-1.05-2.33c-10.6,4.5-13.46,17.6-24.29,21.85-3.93,1.54-3.93,1.54-14.7-6.57-4.52,8.3-10.23,29-10.12,29.46,0.76,3.14,13.91,9.63,19.94,10.93,8,1.73,5.48,6.5,2,10.19-0.13.13-12.8,13-18.38,5.92-3.59.25-17.92,14.32-18.06,14.46,1.35,2.9,9.49,4.33,9.57,4.34,1.73,0.28,1.73.28,3.81,6.11,6.39,2.84,7.45,13.59,17,11.71l0.82,0.83c3.66-.5,6.61-3,10.25-3.58l0.22,1.27c3.05-.17,6.76-6.48,7.15-8.48,0.56-2.85.87-4.42,15.2-14.71,3.23,1.44,5-1.66,5.3-2.3l-0.65-1c2-5.23,8.72-6.06,8.79-6.07-0.58,1.59-1.8,2.76-2.66,4.17,9,0.11,9.39-12.59,18.45-12.39-1.51,3.26-8.92,11.89-15.46,19.5,2.89,1.25,4.84-1.38,7.33-1.79-0.75,3.85-4.64,5.17-6.53,8.1l0.83,0.7c5-1.08,9.23-4.44,14.37-5.19-3.34,7.06-12.34,8-16,14.71l0.54,1c0.75-.22.75-0.22,6.28-3-1,7.56-9.31,8.44-12.73,13.8,1.51-.08,1.51-0.08,3.46-1.24l-0.72.87c0.24-.05,52.63-36.32,111.06-99.91,0.25,1.76-52.16,56.16-52.7,56.67-2,1.95-37.73,29.59-38.08,29.86l-0.29.73h0c-1.52,3.34-12.51,12.61-12.62,12.69,4.59-2.26,8-6.1,12.22-8.9-0.66.93-.66,0.93-3.37,3.23l1.18-.53c-1.06.88-2.14,1.73-3.2,2.61,8.37-4,27.87-20.11,30.06-21.93-1,.75-1,0.75-10.34,7.11,1.91-3,26.58-23.55,26.81-23.74-0.64,1-1.38,2-1.94,3,2.88-1.48,4.77-4.11,7.15-6.16-0.69,1.64-.69,1.64-8,8.28,2.3-1.7,2.3-1.7,13.74-12.28l0.42-.4c5.74-5.53,13.16-13.15,18.6-19"/><path class="cls-6" d="M734.74,862.85c-0.14.11-14.43,9-14.43,7a3.43,3.43,0,0,1,.5-1.24c0.19-.36.64-1.19,0.23-1.39a1,1,0,0,0-.42-0.06c-1.4.08-2.44,1.16-3.79,1.37-0.79.12-.67-1.07-1.43-1,1.26-.78,2.76-1.09,4-1.93s1.68-1.59,1.41-1.78a4.72,4.72,0,0,0-1.92.44c-2.61.88-3.07,0.59-3.24,0.48a1.53,1.53,0,0,1,.69-1.08c1.42-1.42,3.15-2.48,4.61-3.85,0.82-.77,1.34-1.8,2.19-2.53a25.51,25.51,0,0,1,4.33-2.7l0.11,0c0.85,1.93-1.32,4.59-2.14,5.6-1.54,1.89-3.86,4.74.18,4.49,1.9-.12,4.56-1,7.91-2.76s1.75,0.52,1.22.92"/><path class="cls-6" d="M853.44,757.37c-0.4.51-8.63,7.09-8.7,7.13s-0.81.39-.91-0.93c-0.14-1.82.18-2.29,0.54-2.84,0.69-1,3.31-4.15,3.82-3.76s0.18,1.06.85,1.15a2.57,2.57,0,0,0,1.62-.82,34.44,34.44,0,0,0,3.8-4,3.9,3.9,0,0,1,1.08-1.07l0.07,0a14,14,0,0,1-2.17,5.09"/><path class="cls-6" d="M805.8,745.55a20.89,20.89,0,0,1-3.59,4.08,7.23,7.23,0,0,0-1-3.24,1.59,1.59,0,0,1-.29-1.53c0.41-1.45,2.76-4.35,3.88-4.52,1,0.09,1.46,2.31,1.51,2.56a3.78,3.78,0,0,1-.51,2.64"/><path class="cls-6" d="M842,731c-1.92,2.33-3.31,3.55-4.7,2.9,2.15-2.38,3.41-3,5-3.22L842,731"/><path class="cls-6" d="M813.14,788.8a30.33,30.33,0,0,0-6.66,8.75c-0.86,1.7-1.21,2.4-10.77,10.21-6.24,5.09-9.09,4.8-11.38,4.56,2.25-2.18,4.32-4.39,2.76-5.33-0.33-.2-0.77-0.47-0.19-1.25,0.75-1,1.84-1.67,2.67-2.6,1.07-1.2,1.72-2.7,2.78-3.91a21.58,21.58,0,0,1,2-1.95c2.7-2.27,11-7.19,11-7.23,1.58-.89,2-0.47,2.22-0.24,0.31,0,.31,0,1.35-1.15,2.2-2.33,2.82-2.48,3.23-2.58s0.58,0.13.8,0.88c0.33,1.08.71,1.07,1.63,0.48-0.43.41-1,.94-1.43,1.35"/></g></g></g><path class="cls-8" d="M457.68,800.89c-147.45,0-281-59.46-378-155.67C140.32,821,307.09,947.28,503.46,947.28c247.62,0,448.35-200.73,448.35-448.35q0-11.66-.59-23.18C869,667,679,800.89,457.68,800.89Z"/></svg>