<svg xmlns="http://www.w3.org/2000/svg" xmlns:xlink="http://www.w3.org/1999/xlink" viewBox="0 0 1000 1000"><style>.st0{opacity:.8}.st1{enable-background:new}.st2{clip-path:url(#SVGID_2_)}.st3{fill:#222}.st4{fill:#fcfcfc}.st5{clip-path:url(#SVGID_4_)}.st6{opacity:.2}.st7{fill:#c6c6c6}.st8{fill:#555454}.st9{fill:#a6a6a6}.st10,.st9{opacity:.3}.st11{fill:#a6a6a6}.st12{fill:#1a75b6}.st13{fill:#70cc52}.st14{opacity:.6}.st15{opacity:.3;fill:#fff}.st16{opacity:.5}.st17{fill:#fff}</style><path class="st0" d="M501.2 40.4C246.4 40.4 39.8 245.7 39.8 499s206.6 458.6 461.4 458.6c254.8 0 461.4-205.3 461.4-458.6S756 40.4 501.2 40.4zm0 890.8C261 931.2 66.4 737.7 66.4 499S261 66.8 501.2 66.8C741.3 66.8 936 260.3 936 499S741.3 931.2 501.2 931.2z" id="_x31_Ring"/><g class="st1" id="_x32_Globe"><g class="st1"><defs><path id="SVGID_1_" class="st1" d="M52.5 481.2c.2-11.1 1.6-25.9 3-36.9 1.3-10.9 3.3-25.4 5.9-36 2.5-10.4 5.2-24.5 8.6-34.7 3.4-10.1 7.4-23.6 11.2-33.5 3.8-9.9 9-23.1 13.8-32.5 4.8-9.4 10.7-22.3 16.3-31.2 11-17.6 25.9-40.9 38.8-57.1 6.6-8.2 15.7-18.8 22.9-26.4 7-7.5 17-16.9 24.4-24.1 7.5-7.4 18.6-16.3 26.9-22.8 8.7-6.8 20.5-15.8 29.9-21.5 17.2-10.5 40.6-23.9 58.7-32.7 10.9-5.2 25.8-11.3 37.3-15.2 8.8-3 20.7-6.8 29.7-9.4 5.3-1.6 12.5-3.2 17.9-4.5 5-1.2 24.2-5.2 46.3-7.9 6.5-.8 15.3-1.8 21.8-2.3 3-.2 7-.6 10.1-.8 5.3-.3 12.4-.8 17.8-.9 2.2 0 5.2-.1 7.4-.1 6.9 0 10.6.1 12.5.2 1.8.1 3.7.1 5.5.2 2.5.1 5.1.2 5.5.3 7.2.4 12.6.8 15.9 1.1 12.4 1.1 19.1 2.1 26.9 3.2 3.3.5 7.6 1.2 10.8 1.8 3.2.6 7.4 1.4 10.5 2 187.3 37.4 323.5 220.4 314.7 440.3-9.8 246.7-198.2 446.3-420.7 446 222.5.4 410.9-199.3 420.7-446 8.7-219.9-127.4-403-314.7-440.3 7.8 1.6 18.1 4 25.8 6 6.2 1.6 14.4 3.9 20.4 5.9 8.5 2.8 19.8 6.6 28.1 9.9 8.8 3.4 20.5 8.1 28.9 12.4 9.1 4.7 21.4 10.7 30.3 15.7 8.8 5 20.3 12.1 28.6 17.8 8.6 5.8 19.9 14.1 28.1 20.5 8 6.4 18.7 15 25.9 22.2 7.4 7.3 17.5 16.9 24.6 24.5 7 7.5 15.9 18 22.3 26 6.5 8.2 14.7 19.4 20.6 28 5.8 8.6 13.1 20.3 18.2 29.3 4.8 8.4 17.8 31.6 29.6 63 8.6 22.9 15.5 46.8 19.7 67.8 2.1 10.6 4.5 24.8 5.8 35.5 1.3 10.8 2.1 25.3 3 36.1.9 11 .9 25.8 0 36.8-1.6 21.2-4.2 49.5-8.3 70.4-2.1 10.5-5.5 24.4-8.4 34.8-2.9 10.3-7.1 24-11.1 33.9-4 9.7-9.1 22.8-13.5 32.3-4.5 9.6-10.9 22.1-16.1 31.3-14.4 25.5-28.9 45.1-38.8 57.7-18.7 23.7-36.7 41.2-47.1 50.9-17.4 16.1-35.7 30.5-54.7 43.3-8.5 5.7-20 12.9-28.9 17.9-9.8 5.5-23.3 12.2-33.4 17.1-13.6 6.7-32.6 13.9-47.1 18.6-7.9 2.5-18.5 5.8-26.5 7.9-9.1 2.3-21.2 5.3-30.4 6.9-5.5 1-12.9 2.2-18.5 3-5.6.8-13 1.6-18.6 2.2-8.3.9-22.5 2-33.7 2.3-2.5.1-8.2.3-13.4.3-2.5 0-10.2 0-18-.4-3.1-.1-7.9-.3-14.5-.8-6.9-.5-13.6-1.2-20.4-2-16.6-2-29.3-4.5-34.8-5.5-9.3-1.8-21.5-4.9-30.6-7.3-6.3-1.6-14.7-4.2-20.9-6.3-8.4-2.8-19.5-6.7-27.7-10.1-17.6-7.4-40.5-18.6-57.2-27.9-9.5-5.3-21.8-12.9-30.5-19.4-8.4-6.3-19.7-14.3-27.8-20.9-7.9-6.5-18.5-15.2-25.6-22.6-7.3-7.4-17.3-17.1-24.3-24.9-6.9-7.6-15.7-18.2-22-26.3-8.5-10.9-23.3-31.2-38-57.8-5.1-9.2-11.3-21.7-15.7-31.2-4.3-9.5-9.2-22.6-13.2-32.3-4-9.8-8.3-23.4-10.7-33.7-4.9-20.8-10.9-48.7-13.4-69.9-2.4-20.2-2.8-47.1-2.4-67.2z"/></defs><clipPath id="SVGID_2_"><use xlink:href="#SVGID_1_" overflow="visible"/></clipPath><g class="st2"><path class="st3" d="M241.9 854.9c-.5-.4-7.3-6.3-7.3-6.3.1.1.2.1.3.2 7 4.5 9.5 7.5 9.6 7.5v.1c-.5 0-1.6-.7-2.6-1.5m54.6-65.4c-1.8-2.9-1.1-4.9-.9-5.2.9-1.9 3.9-4.8 4-4.9.2-.1.7-.6 1.8-.4.9.2 1.8.6 2.7.7.6.1 1.3 0 1.8-.2 1.2-.4 1.8-1.8 3.2-1.6 3.8 1.3 8.8 14.1 4.9 16.2-.4.2-8.9 2-10.4 1.6-1.5-.3-5.5-3.6-7.1-6.2m-157.2-25.8c-4.6-6.2-4.4-6.5-4-6.9-2.9-6-7.9-10.5-10.8-16.5 1.5 1 1.9 3.6 4.5 3.2.4-3.8-3.1-6-4.1-9.2.1.1.2.2.2.3 10.5 13 16.3 20.1 18.4 20.8 1.4-3.7 17 14.4 17.2 14.7 1.4 2.9 1.9 6.1 3.5 9 4.9 8.6 4.9 8.6 4.7 8.9-1.4-.1-1.9-1.8-3.4-1.6-.1.8.6 1.5.4 2.3-1.1-.4-1.7-1.4-2.6-1.9-.1.1-.1.2-.2.3.6 1.5 2.2 2.5 1.9 4.4-.1 0-.2.1-.2.2-.2-.2-7.7-4.1-25.5-28m48.9-45.2c-3.8-6.5 8.7-8.7 8.9-8.7.4 0 .4 0 1 .3 2.3 1.8 6.4 5.1 10.8 4.6.7-.1 2.8-.3 19 11.8 1.8 1.4 1.3 2.5.4 2.7-2.6.5-4.8-1.1-7.3-1.2-1.4-.1-2.6.4-4 .5-8 .6-13.2-5.6-19.9-8.2-1.4-.5-5.6-1.6-7.1-1-.2.1-.5.2-.7.2-.3.1-.7-.3-1.1-1M71.5 626.6c-1.2-3.9-2.8-10-2.5-11.6h.1c2.5 5 5.6 16.6 5.4 18.2h-.1c-.8-.2-2.4-5.1-2.9-6.6m.6 5.2l-4-13.5-1.5-5.7v.1l6.2 21.2c-.3-.7-.4-1.5-.7-2.1m-.3-29.3c-2.2-8.6-2.3-12.8-2.3-14.6 0-2.7 1.7-5 1.7-7.7 0-2.9-.9-5.7-.6-8.5.1-1.3.3-1.8.8-1.8.5.3.8.5 1.5 1.8 3 5.5 3.7 8 4.5 11.1.3 1.4.7 2.2 1.4 3 1.1 1.4 2.8 2.4 3.6 4.1.1.2.2.5.3.7.9 2.2 1.1 6.3.2 7.1-1.7-.3-1.7-2.5-3.2-3-.3.5-.4.6-.2 5.1.5 9.7.6 13.1-.8 14.4-3 .6-3.6.7-6.9-11.7m228.6 293.9c.1.1 11.5 5.7 13.5 5.8.1-.1.1-.1.5-.2 0 0 .1-.1.2-.1.1-1.5-22.8-13.2-23-13.2.3.3 1.3.9 2.2 1.4 10.2 5.3 13.2 7.9 13.2 8 0 0 0 .1-.1.1-2.7-.4-8.4-3-14.1-6.4-1.1-.7-2.3-1.4-3.2-1.7.3.6 7.4 4.6 10.8 6.3m119.1-179.5c.2.9 1.7 8.6 9.3 9.3 6.3 0 10.7-4.7 2.3-13.3-5.1-5.2-6.7-5-7.4-4.9-1.4.2-4.1 2.5-4.3 6.4-.1 1 0 2 .1 2.5m100.4-29.3c.6 1.7 1.1 3 2.6 3.1 2.6-.1 3.9-3.2 2.1-5-1.1-1.1-2.7-.8-3.1-.7-1.7.6-1.6 2.3-1.6 2.3-.1.1 0 .2 0 .3m279.3 145.6c-.8.7-1.8 1.6-2 1.8.3-.2 3.1-2.7 3.2-2.7l10.6-9.8c-2.4 2.3-3.1 2.9-11.8 10.7m34.3-35.2c-6.6 8.9-20.9 22.8-21 23l17.5-17.9 9.4-10.5c2.4-2.7 2.6-3 2.6-3.1-1.1 1.2-2.1 2.4-3.2 3.6.5-.9 1.3-1.6 1.8-2.4-.1 0-.2.1-.2.2l-6.9 7.1M118.2 550.1c.6 2.5 3 5.9 5.2 6.3.8.2 1.4-.2 1.6-.3 1.6-.8 3.5-1.5 6.8-.9 1.5.3 2.8.9 4.3 1.2.9.2 3.4.4 3.8.4h1c1.5-.1 2.7-.7 3.5-1.7 0 0 3.5-4.9.4-13.6-.7-2.1-5.9-11.7-6.3-12.2-1.1-1.5-2.3-1.7-3.9-1.5-1.5.2-3 .6-4.6.8-2.6 0-4.2-.6-6.3-4.4-1.2-2.2-2.5-1.6-3.2-.2-.3.5-.7 1.6-.3 3.7.4 2.2.6 3.9.4 6.5-.4 4.3-2.2 8.2-2.6 12.5-.1 1.4 0 2.5.2 3.4m411.2-19c.1.6 1.5 6.4 11.8 9.5 1.8.5 6.6 1.9 4.8 7.8-.8 2.5-2.5 3.5-5.9 3.5-5.5 0-3.1 3.9-3.1 3.9.6.9 9.4 8.1 13.6 8.5 5.8-.1 11.9-9.7 6-15.5-5.4-5.3-5-6.3-1.3-16.1 1.5-4 1-6.9-1.5-8.7-7-4.9-23.7-.9-24.5 5.8 0 .4 0 .9.1 1.3m-290.5 332c1.5 1.1 1.5 1.1 6.9 4.7-2-1.6-4-3-6-4.6 5.2 2.9 10 6.5 15.2 9.5-.5-.5-1.1-1.2-1.6-1.7 1.7.7 3.8 1.8 5.4 2.7 5.6-1.5 12-3 12-3 8.7 3.2 13.5 11.9 22 15.3-.2-2.2-.2-2.2-3.6-6.6 2.1-.6 2.1-.6 7.2.6.3-.6.7-1.5 1-2.1-2.2-3.6-5.9-5.8-8.7-8.9.4-.6.9-1.4 1.2-2 1.5.5 3.5 1.3 4.9 1.9.1-.7.2-1.7.3-2.5-1-1.3-2.1-3.1-2.9-4.6.4-.6.9-1.4 1.3-2 10.9 2 17.9 12.8 29.6 12.9 3-3 3-3 1.9-9.5 1.2 0 1.2 0 20 4.6.7-1.3 1.2-3.2 1.3-4.7 5.4-3.7 5.4-3.7 50 16.9.6-.4 1.5-1 2.2-1.4 0-11.9 0-11.9 6.7-20.6-3.1-7.7-10.6-12.5-13.6-20.2 15.6 8 15.6 8 18.1 7.5.2-.7.5-1.6.7-2.3 9.3.7 16.5-6.1 25.4-7-3.7-4.7-4.2-5.3-8.9-11.3 3.2 1 5.7 3.9 9.4 3.2 4.2-9.8 13.7-16.4 16-27.2-1.5-.2-3.5-.7-5-1.2l1.8-30.9c.7-1.2 1.6-2.8 2.5-3.8 9.1-9.2 24.1-3.1 33.1-12.6 6.6-7 3.1-10.1 2-11.1-9-8-5-19.8 5.4-16 8.3 3.1 25.1-26.3 25.8-30.7 1.7-10.4-20.5.2-24.3 7.6-1 1.9-1.6 4.9-3 6.5-7.9.5-14.2 6.1-22.1 6.4-8.5.3-11.6 8.4-17.5 12.4-.8.5-1.6 1.5-2.3 2.2-2.2 2.1-1.6 5.5-3.8 7.5-6.8 6.5-18.5 6.6-22 17.2-4.1-7.3 3.9-16.2-3-23.1-12-12.1-18.1-4.7-19.2.8-2.6 13.7-24.7 34-26.1 35-.6.4-1.4.9-2 1.3-3.2 2-6.4-1.9-9.6.1-4.5 2.8-3.1 10.2-9.2 11.7l-18.9-3.4c1-2.7 2.9-5.1 4.1-7.7 3.4-7.1 12.5-8.4 16-15.4 10-19.8 10-19.8 13.2-23.4 11.4-12.8 2.1-30.5 10.5-44 6.4-10.1 19.7-11.7 26.4-21.5 6.2-9.1 1.6-27.3 17.2-28.3 16-1.1 20.2-11.3 21.1-14.4.2-.8.5-1.9.7-2.8 1.8-7.3 8.4-12 10.1-19.3 1.1-4.8-4.5-8.3-2.6-13.3 2.1-5.2 8.4-6.5 10.5-11.7 5.2-13.2-2.1-14.5-15.2-16.8-.1-.2-.1-.2-1.6-9.6-5.9-3.2-22.3-10.7-22.3-10.7-7.8 11.7-20.3 4.9-30.3 7.8 1.1 1.6 2.7 3.8 3.7 5.4-4.1 9.4-4.1 9.4-7.5 20.7l-6.1 18.8c-18.3 10.3-36-3.8-54.1-1.5-10.6 1.4-33-13.1-31.9 1.9 1.5 21.8 25.7 22.3 34.6 37.2-.6.6-1.5 1.4-2.1 2.1-27.2-4.3-27.2-4.3-29-13.9-2.3-11.6-3.6-11.8-38.1-16.5-12.9 13.4-12.9 13.4-23.5 8.8-3.2-1.4-6.9.5-10.1-1.3-4.5-2.5-4.3-10.1-11-10.3-8.6-9.7-8.6-9.7-24.5 5.2-7.5-1.6-7.4-10.1-12.6-13.7-.8 2.4-.8 2.4 2.1 13.9-4.7-.4-5.9-5.6-9.7-7.2-.7.3-1.6.7-2.3 1l-2 .4c-.8.2-1.9.4-2.8.5-7.2 13.8-7.2 13.8-10.5 12.7-4.6-1.5-13.2-4.3-18.9 1.4.5 2.2 2.8 4.5 4.4 6 23.1 21.7 36.3 58.2 36.3 58.4l-45.4-25c-3.4-2.4-5.4-5.7-9.2-13.7-10.5-22.1-13.7-26.4-18.6-25.4-13.9-8.2-7-23.7 2.5-45.1 2.9-6.6 2.9-6.6-26.6-45.9-1.6 4.6-2.3 6.4-2.8 35.9-3.5-3.3-3-8.3-5.1-12.2-.8 1.3-1.9 3-2.7 4.3-1.9-1.3-1.9-1.3-4.5-5.5-.7 0-1.6-.1-2.3-.1-5.4 25.8-3.4 35.8-1.4 45.5l7.2 30.1c14.2 44.5 14.2 44.5 23.9 66 20.8 41.3 20.8 41.3 33.6 60.8 10.4 14.6 24.7 33.7 36 47.5 6.4 6.5 12.1 13.5 18.4 20 11.3 10.7 26.4 24.8 38.2 34.8l20.2 15.4c.2 0 .3.1.4.2m664.6-363.5c8.7-219.9-127.4-403-314.7-440.3 22.3 5 38.3 8.6 66.5 18.7 37.4 15.3 40.5 16.5 64.8 29.9 38.1 23.3 38.8 23.8 58.1 38.9 34.2 29.1 34.8 29.7 51 47 30 34.8 30 34.8 43.1 54.1 24.4 39.2 24.4 39.2 34.4 60.3 18.2 42.9 18.2 42.9 24.8 65.6 11.2 45.1 11.4 46 14.3 69.8 3.9 47.5 4 48.4 3 73.1-3.4 42.9-4.4 54.5-16.7 105.1-14.7 44.8-14.7 44.8-24.7 66.2-21.2 41.3-21.2 41.3-34.3 60.7-27.1 37.2-27.1 37.2-43 54.3-32.4 32.5-32.4 32.5-50.7 47.1-36.1 26.5-36.8 27-57.6 38.9-38.4 20-39.9 20.8-63.8 29.9-32.2 10.9-38 12.9-69.9 19.9-37.7 6.9-68.6 8.5-87.9 8.5-2 0-4.6 0-6.6-.1-1.8 0-4.1-.1-5.9-.1-1.7-.1-3.9-.1-5.5-.2-1.7-.1-3.9-.2-5.5-.3-1.7-.1-4-.2-5.8-.3-1.9-.1-4.5-.3-6.4-.5-2.3-.2-5.3-.5-7.6-.7-6.2-.6-6.4-.7-9.6-1-8.5-1.1-8.8-1.1-13.4-1.8-13.1-2.1-13.9-2.2-21.3-3.7-25.9-5.8-40.1-9-72.2-20.9-37.5-15.9-40.5-17.2-64.2-30.7-37.8-23.9-38.5-24.3-57.5-39.6-33.8-29.6-34.5-30.2-50.3-47.6-29.5-35.2-29.5-35.2-42.4-54.7-23.9-39.5-23.9-39.5-33.6-60.8-17.7-43.2-17.7-43.2-23.9-66-10.6-45.3-10.8-46.2-13.4-70.1-1.4-20.1-2.4-46.9-2.3-67 3.9-48.8 3.9-48.8 8.8-72.6C73 362.4 73 362.4 81.4 340.1c18.2-43 18.2-43 29.9-63.4 24.5-39.2 24.5-39.2 39-57.4 30-34.7 30-34.7 47.2-50.6 34.2-29.1 34.9-29.7 54.5-42.8 37.3-22.9 38.7-23.8 61-34.2 36.3-15.2 40.1-16.8 67-24.6 53.6-14 99-16.3 121.3-16.5 2 0 4.6 0 6.6.1 1.8 0 4.1.1 5.9.1 1.7.1 3.9.1 5.5.2 1.7.1 3.9.2 5.5.3 1.7.1 4 .2 5.8.3 1.9.1 4.5.3 6.4.5 2.3.2 5.3.5 7.6.7 6.4.7 6.4.7 9.6 1 8.5 1.1 8.8 1.1 13.4 1.8 13.1 2.1 13.9 2.2 21.3 3.7 187.2 37.3 323.3 220.4 314.6 440.3-9.8 246.7-198.2 446.3-420.7 446 222.6.3 410.9-199.3 420.7-446"/><path class="st4" d="M241.9 854.9c1.3 1 2.3 1.5 2.5 1.5v-.1s-2.4-3-9.9-7.7c.1 0 6.9 5.9 7.4 6.3m54.6-65.4c1.1 1.8 5.4 6.2 7.8 6.4 9.9-.5 10.6-2.4 10.8-3.3 1.3-4-2.6-12-5.1-14.1-1.7-1.4-3.1.8-4.6 1.2-1.7.4-3.1-.8-4.7-.7-.5 0-.7.1-.8.2-.8.4-3.7 3.9-4.1 4.5-.2.3-.7 1.3-.6 2.8.3.9.7 2 1.3 3m-157.2-25.8c17 22.8 25 27.9 25.6 27.8.7-2.1-1.8-3-1.8-4.9 1.1.3 1.8 1.3 2.7 1.9.1-.1.2-.2.2-.3-.2-.7-.5-1.3-.5-2 1.6-.4 2.1 1.5 3.4 1.5.2-.4.4-.7-.2-1.8-1.9-4.1-5.3-7.4-6.6-11.8-1.4-4.5-1.4-4.5-2.3-5.7-.1-.2-14.3-14.5-15.8-14-.4.1-.2.6-.5.8-2.4-.7-11.8-12.5-18.6-21.1.2.5.2.5 1.4 2.8 2.7 5.2 3.1 5.9 2.7 6.4-1.6-.1-1.7-.3-4.2-3.2 1.8 6.6 8.8 9.9 10.6 16.5-.1.1-.2.1-.2.2-.1.8-.1 1.3 4.1 6.9m48.9-45.2c.4.7.8 1 1 1.1.3.1.6 0 .9-.2 1.2-.6 5.1.4 5.7.6 6.2 1.9 11 6.8 17.3 8.3.5.1 1.3.3 1.8.3 2 .1 4-.6 6.1-.5 2.3.1 4.5 1.2 6.8 1.3.9 0 1.1-.3 1.2-.6.6-1.6-16.5-14.2-20.7-13.9-3.6-.1-5.9-1.1-10.3-4.7-1.3-.8-11.3 1.3-10.4 6.8.2.8.5 1.4.6 1.5M71.5 626.6c.5 1.5 2.1 6.4 2.9 6.8h.1c.2-1.7-2.9-13.2-5.4-18.2-.4.6.9 6.5 2.4 11.4m.6 5.2c.3.7.4 1.4.7 2.1-1.8-7.2-4.2-14.2-6.2-21.3l1.5 5.7 4 13.5m-.3-29.3c3.2 12.5 3.9 12.3 6.9 11.6 1.4-1.3 1.3-4.7.8-14.4-.2-3.8-.2-4.4 0-5 .1 0 .2-.1.3-.1 1.2.9 1.2 2.9 3.1 3 1-.8.8-4.9-.2-7.1-.1-.2-.2-.5-.3-.7-.9-1.8-2.8-2.8-3.9-4.5-.6-1-.9-1.9-1-2.6-.7-2.8-1.5-5.7-4.5-11.1-.9-1.6-1.3-1.7-1.7-1.8-.4.3-.5.5-.6 1.8-.3 3.2.8 6.3.5 9.4-.2 2.4-1.7 4.4-1.7 6.9.1 2 .1 6.1 2.3 14.6m167.1 260.6l-20.4-15.6c-11.7-10.2-27.2-23.9-38.2-34.8l-1.3-1.4c-26.3-27.8-43.1-51.8-53.2-66.2-23.9-39.5-23.9-39.5-33.6-60.8-17.7-43.2-17.7-43.2-23.9-66l-7.3-30v-.1c-1.3-7-4.5-23.3 1.3-45.4 3 1.2 4.1 4.7 7.2 5.6.3-.7.6-1.6.9-2.3.7.1 1.7.3 2.4.4.9 3.4 1.6 6.8 2.6 10.1 8.9-11.3 1.2-24.4 3.7-36.4 28.4 36.4 28.4 36.4 27.5 44.3-.8 6.8-9.2 8.7-9.9 15.5-1.7 16.4 5.1 30.9 5.1 31 20 5.1 16.2 27.4 28 38.5l33.1 21.8c.1 0 10.3 4.5 13.7 4.7 0-.2-17.2-42.6-36.1-58.6-4.1-3.5-4.1-3.9-4.3-6.9 1.7-.7 1.7-.7 25.7.8 3.8-3.9 1.5-9.2 3-13.6.7-.3 1.6-.6 2.3-.9l1.1-.1c1.5-.4 3.5-1 5-1.4 1.7 1.1 1.7 1.1 7.5 7.9.4-.6.9-1.5 1.3-2.1-2.3-6.1-2.8-7.4-2.5-11.5 7.5 1.2 7 9.8 12.3 13.1 19.2-12.4 19.2-12.4 25.4-5.5 3.3.2 3.3.2 23.5 12.8 9.9 6.2 17.1-4.7 19.8-9.6 13.7-1.7 37.1-1.3 39.9 20.2 1.1 8.8 1.1 8.8 29.5 9.6.3-.8.6-1.9.9-2.7-10.1-12.1-25.8-18.7-33.1-33.7-4.6-9.4 12.1-9.1 12.3-9.1l41.8 6.9c5 4.1 22.9 2.5 25.2 1.6 19.8-7.5 8.3-29.3 18.9-41-.8-2.2-3.4-4.4-5.4-5.4 10.3-5.5 22.9-2.8 33.1-8.9 7.3 2.1 12.9 8 20.4 9.7 1.1 1.8 1.1 1.8 1.2 9.1 5.7 3.8 15.9.8 17.8 10.3.4 2-.1 4.8-.6 6.7-1.6 6.1-9.2 7.2-11 13.1-1.6 5.1 3.6 9 2.5 14.1-.1.3-11.3 32.3-25.5 35.2-3.9.8-8.5-2.7-11.8 1.8-8.4 11.4-10.1 26.2-18.8 37.4-4.9 6.3-14.9 3.8-19.2 11.2-3.5 6 0 12.5-1 18.6-3.2 19.8-3.2 19.8-42.9 70.4 3.9 8.4 21 4.1 21.1 4.1 5.1-1.9 3.2-8.3 7-11 2.6-1.9 4.6 1.4 7 1 1.9-.4 15.3-9.7 15.7-13.4.1-.7 17.9-49.9 35.7-22.9 4.3 6.6-1.3 13.2.1 19.8 6.3-4.4 16.9-.9 20.2-10.9l18.7-26.5c9.6-6.2 21.4-3.6 31.5-7.9 3.8-15.5 23.4-18.1 24.7-16.9 6.5 6-16.9 35.1-23.5 34.7-9-.5-9-.5-9.6.3-2.3 3-3.2 7.9-.1 12.2 14 19.2-12.2 19.8-12.5 19.7-10.4-.8-14.7-1.1-22.1 10.9-5.8 9.3 1.4 19.8-2.7 29.3.9 1 2.6 2.1 3.9 2.4 4.9 10.4-15.6 28.2-15.8 28.3-3.1-2-3.1-2-7.1-4.5 1.7 3.2 1.7 3.2 8.5 11.9-8.7.9-15.6 8.2-24.9 6.9-.4.7-.9 1.7-1.2 2.4-2.5.5-2.5.5-18.1-7.5 3.2 7.9 15.6 10.4 12.9 21.8-1.6.7-1.6.7-6.4 19.9-1.8.2-4.3.6-15.8-8.5-.2-.1-28.4-10.2-35.2-8.7-.6 1.2-1 3.1-1 4.5-.6.3-1.5.7-2.1 1-7.3-3.1-13.6-4.6-18.9-4.5.3 1.4 1 3.2 1.7 4.4-1 1.1-1.9 3-2.2 4.5-13.3 3.3-18.4-16.4-32.2-11.6.1.9.1.9 4.5 8.7-2.6-.6-5.2-1.7-7.8-2.4.6 5.5 6.2 7.3 8.5 11.6-.6.4-1.4 1-2 1.4-1.4-.4-3.4-1-4.8-1.3-.1.7-.3 1.6-.5 2.3 1 1.2 2.4 2.9 3.4 4.1-.7.1-1.8.7-2.5.4-6.8-2.5-11.1-8.4-16.7-12.4-6.6-4.7-14.6 1.4-21.2-2.8.5.6 1.2 1.4 1.7 1.9-2.5-1-2.5-1-14.8-9.1 1.7 1.6 1.7 1.6 5.7 4.5-2.3-1.4-3.6-2.3-6.7-4.5"/><path class="st4" d="M118.2 550.1c.6 2.5 3 5.9 5.2 6.3.8.2 1.4-.2 1.6-.3 1.6-.8 3.5-1.5 6.8-.9 1.5.3 2.8.9 4.3 1.2.9.2 3.4.4 3.8.4h1c1.5-.1 2.7-.7 3.5-1.7 0 0 3.5-4.9.4-13.6-.7-2.1-5.9-11.7-6.3-12.2-1.1-1.5-2.3-1.7-3.9-1.5-1.4.2-2.8.6-4.3.8-3.6.4-5.3-2-6.6-4.3-.6-1-1-1.4-1.8-1.4-1.5.3-1.8 2.3-1.8 2.4-.2 1.1-.1 1.5 0 2.6.5 2.8.8 4.7.2 8.4-.6 3.6-2 6.9-2.3 10.6 0 .5-.1 1.9.2 3.2m411.2-19c.1.6 1.5 6.4 11.8 9.5 7.5 2.2 5 7.7 4.4 8.8-1.2 2.2-3.5 2.5-5.5 2.5-5.8 0-2.8 4.3-2.8 4.4.9 1 8.6 6.9 11.8 7.8 1.6.4 4.6.7 6.9-2.7 3-4.2 3-6.9 3-8.2 0-2.1-1.5-3.5-2.5-4.4-2.8-2.7-5.3-5-3.5-10.8.7-2.3 2-4.3 2.6-6.6.2-.9.7-2.7.3-4.4-1.1-4.4-7-4.8-10.1-5-9.8-.5-17.2 4.6-16.4 9.1m-229 365.3c.1.1 11.5 5.7 13.5 5.8.2-.2.4-.2.6-.3.1-1.5-22.8-13.2-23-13.2.3.3 1.3.9 2.2 1.4 10.2 5.3 13.2 7.9 13.2 8 0 0 0 .1-.1.1-2.7-.4-8.4-3-14.1-6.4-1.1-.7-2.3-1.4-3.2-1.7.4.6 7.5 4.6 10.9 6.3m119.1-179.5c1.8 10.2 11.9 11.1 15.5 6.8 3.7-4.6-7.1-15.5-10.8-15.8-2.1.2-5.7 3-4.7 9m100.4-29.3c.6 1.6 1.1 2.8 2.2 3.1 1.4.3 2.7-.9 3.2-1.9.3-.7.4-3.6-2.7-3.9-2.6-.1-2.9 2.1-2.7 2.7m279.3 145.6c8.8-7.9 9.3-8.4 11.7-10.7-3.2 2.9-7.4 6.8-10.5 9.8l-.1.1c-.7.6-2.8 2.4-3.1 2.6.2-.2.4-.4 2-1.8m34.3-35.2c.1-.2 7.1-7.5 7.2-7.6-.1.1-.1.1-1.9 2.6 1.2-1.1 2.2-2.4 3.3-3.6-.9 1.2-.9 1.2-12 13.6l-17.6 18 .6-.6c.2-.2 13.9-13.6 20.4-22.4"/></g></g><g class="st1"><defs><path id="SVGID_3_" class="st1" d="M412.3 938.6c-12.6-2.7-29.2-7-41.6-10.4-6.3-1.7-14.6-4.6-20.8-6.8-11.9-4.4-27.6-10.8-39.1-16.1-8.7-3.9-19.9-10.1-28.4-14.5-11-5.7-25.1-14.4-35.1-21.8-8.7-6.4-20.5-14.8-29-21.6-8-6.4-18.5-15.2-25.7-22.5-7.4-7.5-17.5-17.3-24.6-25.2-6.9-7.6-15.7-18.2-22-26.3-6.4-8.3-14.6-19.7-20.3-28.4-5.7-8.6-12.9-20.5-17.8-29.5-4.6-8.4-17.5-31.9-28.9-63.5-9.3-25.7-14.7-47.2-18.8-68.2-2.1-10.6-4.2-24.9-5.4-35.7-1.2-10.8-2.1-25.3-2.5-36.2-.7-20.3 1.4-47.3 3.1-67.5.9-10.9 3.2-25.4 5.9-36 2.6-10.4 5.6-24.4 8.6-34.7 3-10.3 7.1-23.9 11.3-33.8 8.1-19.3 19.4-44.9 29.8-63.1 11.3-19.8 24.4-39.1 38.9-57.4 14.3-18 30.3-35.1 47.5-50.9 7.5-6.9 17.9-15.8 26-22.1 8.3-6.5 19.6-15 28.5-20.7 8.5-5.4 19.8-12.7 28.6-17.6 9.5-5.3 22.3-12.3 32.4-16.6 17.2-7.4 40.6-16.2 58.3-22.1 3.6-1.2 20.2-5.8 31.1-8 7-1.4 16.3-3.2 23.3-4.3 6.9-1.1 16-2.4 22.9-3.2 6.4-.7 15-1.7 21.4-2.1 2.9-.2 6.8-.5 9.8-.7 5.1-.3 11.9-.6 17-.7 10.4-.1 19.8.2 22.4.4 9.3.4 15.9.9 25.2 1.8 3.9.4 12.1 1.2 22.9 2.8 4.7.7 12.2 1.9 21.5 3.7-22.8-4.5-46.3-6.9-70.5-7 24.1 0 47.7 2.4 70.5 7C601 62 617.3 66 629.4 69.4c7.9 2.2 18.2 5.8 25.9 8.6 8.8 3.3 20.6 7.9 29.1 11.9 10.9 5 25.2 12.2 35.7 18 19.6 11 39.2 24.1 58.1 38.9 16.1 12.6 35.7 31.8 50.2 46.2 7.5 7.5 16.5 18.5 23.1 26.8 6.4 8.1 14.6 19.1 20.4 27.7 5.9 8.7 13.3 20.6 18.6 29.8 5.1 9 11.2 21.5 16 30.7 4.9 9.4 10 22.5 13.8 32.4 3.7 9.8 7.8 23.3 11.1 33.2 3.4 10.1 6.5 24.1 8.6 34.6 2.1 10.6 4.5 24.8 5.8 35.5 1.3 10.8 2.1 25.3 3 36.1.9 11.1.9 26 0 37-1.7 21.8-4.5 51-8.7 72.4-4.1 20.3-11.2 47.2-19 66.3-4 9.7-9.1 22.8-13.5 32.4-4.4 9.5-10.9 22-16 31.2-16.4 29.2-32.7 50-38.7 57.6-20.9 26.6-41.3 45.6-46.8 50.7-22 20.4-41.7 34.6-53.9 42.9-8.8 6-20.8 13.8-30.3 18.8-17.5 9.2-41.3 20.6-59.5 28.2-8.9 3.7-21.2 7.8-30.5 10.5-13 3.8-30.4 8.3-43.7 11-5.5 1.1-12.8 2.4-18.3 3.1-10.8 1.5-14 2-27.7 3.3-2.7.3-6.2.6-8.8.7-4.9.3-11.5.7-16.4 1-3.7.2-11.1.4-16.5.4-9.8 0-18-.4-18-.4-1.8-.1-3.7-.2-5.5-.3-3.5-.2-5.7-.3-5.8-.3-2.6-.2-8.2-.6-14-1.1-10.2-1-17.3-2-22.9-2.8-11.7-1.7-21.9-3.8-22-3.8z"/></defs><clipPath id="SVGID_4_"><use xlink:href="#SVGID_3_" overflow="visible"/></clipPath><g class="st5"><path class="st3" d="M780.8 834.4c2.2-2 3.6-4.2 3.2-4.7h-.6c-.4.1-.6.2-1.2.6l-8.3 4.6c-.4.3-17.6 15.5-18.4 16.3-.3.3-1.4 1.4-1.4 2.1l.1.1c.3-.1.8-.2 3.5-2.1 5.3-3.8 10.8-7.2 16-11.1.2-.1.5-.3.6-.5 1.1-.9 1.6-2.3 2.7-3.2 1.2-.9 2.7-1.1 3.8-2.1m36.1-32.9c1-1 1.8-2.4 1.4-2.5-.5-.1-.8.5-1.2.4-.3-.1 0-.8.3-1.2.2-.4.7-1.4-.1-.9-.3.2-.9.6-1.5 1.3-.1.1-.2.3-.3.4-.5.7-1 1.6-1.5 2.3-1.1 1.5-2.3 2.8-3.3 4.3-.7 1-1 1.8-.7 1.9.4-.1 6.8-6 6.9-6m-672.5-45c-.1-.1-.2-.3-.3-.5v.1c-.6 1.6-.5 1.7-.4 2.1.3.7 2.4 3.2 2.7 3.2.1-.1-1-3.1-2-4.9m668.7 32.3c-4.4 4.3-5.9 7.2-6.7 8.8-.9 1.7-1.2 2.4-10.8 10.2-6.2 5.1-9.1 4.8-11.4 4.6 2.2-2.2 4.3-4.4 2.8-5.3-.4-.2-.8-.5-.2-1.2.7-1 1.8-1.7 2.7-2.6 1.1-1.2 1.7-2.7 2.8-3.9.4-.4.9-1 1.3-1.3 2.6-2.5 11.6-7.8 11.7-7.8.9-.5.9-.5 2.3-.2.3-.1.3-.1 1.3-1.2 3.1-3.3 3.6-2.6 3.8-2.3.3.4.2 1.1.7 1.5.3.2.8-.1 1.2-.4-.5.2-1 .7-1.5 1.1m6.1 3.1c.6-.6.8-.9.9-1.2-.1-.1-.2-.2-.2-.3h-.8c-.3-2.4 2.5-2.8 3.2-4.6 1.2-3.1 1.2-3.1 1.8-4.4 1.8-3.5 1.7-3.8 1.6-4.3h-.4c-3 1.4-5.1 4-8.1 5.3-3.6 1.6-7.8 1.3-11.3 3.2-4 2.2-4.2 2.4-15 10.4-.7.5-1.2 1.2-1.4 1.4-1.2 1.5-3.2 4-4.5 3.6-.5-.1-.6-.9-1.2-.9-.5-.1-1.2.2-1.7.5-.8.4-3.7 2-6.9 5.3-.2.2-.4.5-.6.7-.1.2-.3.4-.4.6-1 1.6 1.2 3.3-.2 4.8-2 2-5.1 2.8-6.4 5.7-.3.7 1.5 1.4 1.6 1.4 4.1 1.3 6-2.7 9.1-3.8 2.2-.8 4.4.4 6.6-.1 1.8-.4 3.7.1 5.4-.8.4-.2.6-.3 1-.7 1.2-1 1.2-1.4 1.2-1.9 0-.7.6-1.4 1.8-2.1 2.7-1.4 2.7-1.4 14.1-11.2 3.3-2.7 7.8-3.5 10.8-6.6m-36.8-6s2-3.2 1.5-4.4c-.6-.2-1.8.4-1.9-.6-.1-.7.4-1.4 1.5-3.1 1.1-1.6.8-1.9.1-1.8-.3.1-1 .2-1.6.7-1.1.8-1.8 2.1-2.9 3-1.7 1.4-1.7 1.4-5.7 4.1-2.4 1.6-4.4 3.1-4.8 3.7-.1.2-.3.5-.3.7 0 .8.3 1.5.3 2.3 0 1.5-.6 3-.6 4.5 0 1.1.5 2 .5 3.1.1 3.7-4.3 3.9-5.2 6.9-.1.2-.1.5.1.6 1.2.6 1.8-.7 2.7-.8.7-.1 1.4.1 2.1-.1.4-.1.8-.4 1.2-.8l.3-.3c2.4-3.4 3.5-7.4 6-10.8 2.1-2.6 4.9-4.3 6.7-6.9m-651.8-43.7c-1.1-2-4.5-6.4-4.9-6.5.1.4.3.7.3 1.1.1.4.1.6 0 .8 0 .1-.2.1-.3.1-.3-.1-.5-.3-.7-.3-.2.2.6 1.7 2.5 3.8 2.2 2.4 4 3.3 4 3.3h.1c0-.2 0-.5-1-2.3m677.3 35.3c2.9-3.6 3.5-7.4 3.5-7.4v-1.5l-1-3.7c-.2-.5-.6-.7-1.2-.7-.2 0-.4.1-.5.1 0 0-5.3 2-5.9 2.7-.3.3-.7.8-1 1.2l-3.4 5.4c-.6 1.1.2 1.4.2 1.4.5.2 1.3-.6 1.8-1.2 1.1-1.2 1.2-1.3 1.9-1.7-2 4.2-3 6.3-6.6 9.1-.1 0-4.7 4 0 2.5 1.4-.5 2.4-1.9 4.1-1.8.2 0 .3.1.6.3.4.3 1.3.7 2.7 0 2.2-1.4 4.7-4.6 4.8-4.7m-682.1-50.7c-.4-1.1-1.5-2.8-2-2.9-.3 0-.6 1-.6 1.3 0 .5.3 1.2.8 2.3 2.1 4.1 5.4 8.1 6.1 8.7.2.1.2.1.3.1.1-.3-.2-1-2.1-4.6-1.1-1.8-1.9-3.4-2.5-4.9m-4.1-11.6c-.4-1-1.4-2.3-1.9-2.7-.4-.4-.4-.4-2.8-2-.1-.1-.1-.1-.3-.1-.3.6 1.4 3.7 2.3 4.9.8 1.1 2.5 2.4 2.9 2.2.5-.2.2-1.3-.2-2.3m-36.5-59.8c-.6-1.9-1.3-2.6-1.5-2.7-1.7-.6.6 4.4.6 4.4.5 1 1.3 1.9 1.5 1.3.1-.4-.1-1.6-.6-3m-16.5-36c-1.2-4.3-1.6-5.7-2.1-7 .3 1.8 1.1 4.1 1.6 5.9l4 13.5c-1.2-4.1-2.3-8.2-3.5-12.4m7 7.4c0-.2-4.2-15.7-4.9-16-.1.2-.2.2 0 1 .5 2.9 1.8 5.5 2.1 8.4.1.6-.3 1.2-.3 1.8.2 1.8.7 3.8 1 4.6.6 2.1 3 6.9 3.7 6.9.2-.2.2-.2-1.6-6.7M704.4 439c.2-2.1-.3-5.2-3.4-8.2-7-6.5-10.8-6.3-12.1-6.2-5.2 1-9.4 6.4-5.7 9.3 0 0 10.8 6.7 12.1 7.5 2.1 1.2 2.8 1.5 3.9 1.7 2.3.6 4.9-.4 5.2-4.1M585.9 328.6c0-7.2-1.4-9-2-9.7-3.3-4.2-10.2-3.7-12.5-9.2-2.7-6.3-2.7-6.3-5.4-6.3-10.8.8-11.9 15.1-11.9 15.3-.2 2.8 1.1 5.5.8 8.3-.3 2.9-1.9 5.6-1.3 8.7 1 5.9 7.1 8.9 8.5 14.7.9 4.1-.1 7.1-1.1 10.3-.2.5-.7 2.1-.4 3.4.4 1.5 1.6 2.4 1.9 2.6.1.1 10.1 6.1 16.5 3.6 4.2 2.2 9.2-5.8 7.2-11.5-.6-1.6-2.3-2.4-2.7-4.1-.1-.4-.4-9.6-.4-9.7-.1-5.8 2.8-10.8 2.8-16.4m-89.7-90.4c.4-1.1.6-1.9-7.5-5.8-.5-.2-2.1-.9-4.1.2-3 1.7-3 1.7-4.3-.3-2.6-4-4.5-4.1-6.8-3.1-5.9 2.6-5.4-8.1-11.2-8.1-2.5.3-4.3 2.3-6.7 3-1.4.4-1.4.4-8.3-.4-15.1-1.7-18.7 8.2-19.3 10.2-.8 2.8-.2 5.9-2 8.4s-5 2.7-7.2 4.5c-.6.5-1 1.5-1.1 2.2-.1 1.3.7 2.5.7 3.8.1 1.5-2 3.2-.3 4.5 2.3 1.8 5.4 1.8 7.6 3.8 1.8 1.6 3.8 3.5 5.1 7.8 1.6 5.3 1.6 5.3 1.8 5.5 1.3-1.4.8-3.4 1.9-4.9 1.2.4 1.9.8 2.6 2.8.5 1.6 2.1 6.3 9.2 4.1 2.3-.7 3.6-1.6 4.1-2.1 3.7-3.1 5.1-8 8.8-11 2.1-1.7 5.1-.1 7.1-1.9.3-.2.7-1 .2-2-.9-2.1-1.7-4.3.9-5 3.6-1 6.4 1.5 9.6 2.1 2.4.4 6.4 1.2 8.7-1.1 2.6-2.2 10.4-17.1 10.5-17.2m-250.9 619c2.6 2.4 2.6 2.9 2.6 3.2-1.5.1-2.6-1.5-4.2-.9-.6.2 0 1.1.2 1.5.3.5.3.5.3.8-1 .3-14.4-7.6-28.3-19.9 1.4.3 2.3 1.6 3.6 2.2-.3-.4-.3-.4-2.3-2.2-2.2-1.9-2.3-2.1-2.3-2.4.1 0 8.4 1.9 12.9 4.5 5.6 3.3 14.9 10.8 17.5 13.2m489.4 5.7c-.1.1-14.4 9-14.4 7 0-.3.3-.8.5-1.2.2-.4.6-1.2.2-1.4-.1-.1-.3-.1-.4-.1-1.4.1-2.4 1.2-3.8 1.4-.8.1-.7-1.1-1.4-1 1.3-.8 2.8-1.1 4-1.9 1.1-.8 1.7-1.6 1.4-1.8-.2-.1-1.2.2-1.9.4-.4.1-1.6.5-2.6.6-.2 0-.5 0-.6-.1 0-.2 0-.4.7-1.1 1.4-1.4 3.1-2.5 4.6-3.8.8-.8 1.3-1.8 2.2-2.5.4-.3 3.9-2.7 4.4-2.7.8 1.9-1.3 4.6-2.1 5.6-1.5 1.9-3.9 4.7.2 4.5 1.9-.1 4.6-1 7.9-2.8 3.2-1.8 1.7.5 1.1.9m118.7-105.5c-.4.5-8.6 7.1-8.7 7.1 0 0-.8.4-.9-.9-.1-1.8.2-2.3.5-2.8.7-1 3.3-4.1 3.8-3.8 0 0 .1.1.1.2.2.8.4 1 1 1 1.1-.4 2.2-1.2 5.2-4.8.6-.7.9-1 1.1-1.1h.1c0 .3-.9 3.4-2.2 5.1m-47.6-11.9c-.7 1.3-2.2 2.8-3.6 4.1-.1-.5-.2-2.1-1-3.2-.3-.5-.5-.9-.2-1.8s3-4.8 4.2-4.1c0 0 2.2 2.3.6 5M842 731c-1.7 2.1-2.7 2.9-3.8 3.1-.4 0-.6 0-.9-.2 2.2-2.4 3.4-3 5-3.2-.1 0-.2.2-.3.3m-12 72.1L812.5 821c-.5.4-1.1 1-1.5 1.5l-10.6 9.8c-.9.7-.9.7-3.1 2.5 2.7-2.7 5.7-5.1 8.2-8-3.1 1.4-5 4.2-7.5 6.3.6-1.6.6-1.6 2.2-3.4l-27.4 23.6c2.9-1.1 10-6.4 10.1-6.5-.2.1-16.3 13.8-29.5 21.6.3-.3.3-.3 6.1-5.8-4.6 2.4-8.3 6.2-12.5 9.1 3.9-4.2 8.5-7.7 12.3-12l-.1-.6c3.7-5.3 9.6-9.5 34.6-27.6.5-.4 54.7-51.6 57.1-60.1-17.2 15.6-30.7 34.6-47.9 50.2l-64 50.6c.2-.3.6-.7.8-1-.8.3-1.8.8-2.6 1.1-1.1-8.6 9.5-8 12.4-13.7-2.6-.2-4.4 1.8-6.7 2.5-.2-.3-.4-.7-.5-1 3.6-6.6 11.9-8 15.9-14.1-.3-.1-.7-.3-1-.4-11.6 5.3-13.3 4.9-14.1 4.7 1.2-3.7 5.4-4.9 6.7-8.4-2.7-.2-4.7 1.7-7.2 2.2.1-1.2 1.9-3.4 15.3-19.6-1.8-.6-1.8-.6-9.3 6.6-4.6 4.4-4.6 4.4-8.9 5.7.3-1.7 1.6-2.9 2.4-4.4-2.3-.1-7.3 1.8-8.9 5.9.2.3.5.7.6 1-.4.8-1 2-3.7 2.9-3.5-2-16.7 13.1-16.7 13.4-.4 5-6.2 9.3-6.3 9.4-.1-.1-.1-.1-11 2.3-.2-.2-.6-.5-.8-.7-1.7-1-3.4.8-5.1-.2-2.3-1.4-2-5.2-5.1-6-1.2-.3-7.6-6.5-7.7-6.5.2-1.2.7-2.5.7-3.7-3.8-3.5-9.4-2.4-13.5-5 .6-3.1 17.6-15.4 17.8-15.4 8.7 9 21.7-12.1 21.7-12.5 0-.9-.8-2.2-1.6-2.6-4.8-2.5-10.4-3-15-6-2.7-1.7-7.5-.5-8.3-5-1.1-6.2 3.2-10.8 4.7-16.3 1.7-6.5 2.9-9.6 5.2-13.9 13 7.1 13 7.1 14.8 6.4 10.7-4.4 14.6-16 23.6-22.3.5.5.9 1.5 1.1 2.2 1.3-.2 2.2-1.4 3.3-2 2.3.9 2.3.9 3 .9 2.6-.3 2.6-.3 25.3-24.1 1.6-1.7 9.9-10.2 13.8-9.6 4.5 9.4-4.1 18.6-.4 28.1.4 1.1.4 1.1-6.4 10.9-1.3 1.8-1.3 1.8 1.5 8.1-2.4 3.3-7.2 3.6-9.4 7.1.3.2.6.5.9.7.2-.1.5-.1.7-.2 3.7.5 7.3-.8 13-8.5 3.2-4.3 4.1-4.5 5.3-4.8 3.3-.8 6.2 1.8 9.5 1.1.4.6.6 1.7.6 2.4.3.2.7.4 1 .6 1.2-.8 11.8-7.5 10.9-11.9-.1-.6 0-1.7 2.3-1.9.7 1 .6 2.3 1.1 3.4.9-.1.9-.1 4.2-1.9.5.4 1 1.1 1.1 1.7 2.7.2 3.7-2.7 5.9-3.4.2.3.5.7.7 1 7.6 1.2 7.1-8.3 12-11.1 0 .7 0 .7-1.2 3.4.2.3.5.6.7.8l12.2-11.1c0 .4 0 .8.1 1.2.3.1.8.3 1.2.4 3.2-1.8 5.8-4.6 9.1-6.2.9.5.9.5 4.5-.4 4.3 18.3-20.2 20.2-20.4 35.9.3.2.6.5.9.7-.2 1.1-.2 1.1-2.4 4.7 2.2 1.2 2.2 1.2 20.6-16.1.3.2.6.5.8.7 6.8-7 4.2-19.9 15.2-24.3.3.3.6.6.9.8-.2.7-.3 1.7-.2 2.5 3.8-1.8 5.4-5.7 8.4-8.4.4 2.2-2.3 7-8.1 14.4-9.2 11.7-9.2 11.7-11.3 15.7 1.1-.4 1.1-.4 6.2-6.3-.3 1.3-2.3 8.5-13.1 21.9l-.1.1c-5.7 6.6-11 13.6-16.7 20.2 1.6-1.8 2.1-2.4 4-4.6l-9.9 10.7M94.2 614.5c-2.2-2.5-2.8-1-3.4 1.2-.7 2.5-1.3 2.6-2 2.5-1.9-.7-6.8-7.8-8.9-14.8-2.2-7.3-2.4-21.1-2.2-21.9.1 0 .2 0 .2-.1.1.1.3.2.3.3.5.9 1.7 6.3 1.7 6.3.7 3.4 2.1 9.3 3.5 11.3.9 1.4 2 1.7 3.6 1.9 2.1.2 3.5 2.3 4.4 4.1 1.3 3 2.1 5.6 2.8 9.2m14.5-39.3c.1 1.8-.3 3.1-.6 3.9-.8 2.7-2.3 7.7.7 15.1 2.5 6.1 2.5 6.1 1.8 10.4 0 .2-2.9 15.6-8.3 10.6-5.3-4.9-6.2-10.1-7.9-20.5-.8-4.9.6-7.3 1.4-8.6.4-.6.9-1.5.6-4.3-.3-3.2-2.1-6-2-9.3 0-.1 0-.7.5-.6.1 0 .5.1 1 .6 2.7 2.1 2.3.1 1.3-4.8-.9-4.6.2-4.4 2.6-3.7 4.9.7 4.9.7 5.6 1.5 1.1 1.4 3.2 6.2 3.3 9.7m129.1 286.2c4.3 3.3 5.2 4 5.7 4.5-.9-.3-1.2-.5-6.6-4.2.3.2.4.3 1.6 1.2l-20.2-15.4c-11.7-10.2-27.2-23.9-38.2-34.8 18.8 19.1 31.1 28.5 51.6 44.1 1.9 1.3 2.3 1.7 6.1 4.6M176.7 761c2.3 6.9 1.4 14.3 3.4 21.2-1.1.4-1.1.4-8.7-2.8.1 1.5.2 3.2 13.5 18.1 2.3 2.6 2.3 2.6 9.6 16.2-.2 0-.2 0-4-.4 0 2.2 3.9 8.4 6.2 11.9-1.4-.6-22-17.9-34.9-32.6-11.2-14-25.8-32.9-36-47.5-23.9-39.5-23.9-39.5-33.6-60.8-17.7-43.2-17.7-43.2-23.9-66l-7.3-30c1.4 6.4 3.7 15.7 4.6 18.1-.1-9-1.3-17.9-.6-26.9 2.4 2 2.8 5.1 4.5 7.5.8-.1 1.7-.6 2.3-1.1 8.3 9.7 6.5 22.8 11.5 33.6 2.2 4.7 2.2 4.7 13.6 26.3 2.2 4.2 2.3 4.3 3.8 5.7 2.8-.5 6-1 15.4 12.6 11.5 16.6 16.2 36.3 25 54 11.1 22.3 11.1 22.3 17.9 28 17.6 14.7 17.6 14.7 17.7 14.9m183.5-599.7c-1.3 1.5-2.5 2.2-2.9 2.3-.3.1-.6.3-.9.4l-10.1 3.4c-1.8.6-2.7.3-2.8-.9-.1-1.4 1.7-2.7.4-4.3-1.2-1.4-2.6.3-3.9.2-.7-.1-.7-.1-.4-2-.7-.2-1.6-.6-2-1.1.2-2.7 8.7-11.5 8.8-11.6 3.6-3.4 8.2-5.4 12.2-8.1 6.4-4.4 10.1-3.5 11.2-2.5.8.8 1.2 2.6.6 4.2-1.7 4.2-6 6.6-7.2 11.1-.6 2.2-.4 4.5-1.5 6.5-.2.4-.8 1.5-1.5 2.4m348.3 47.6c1.6 6-6.1 8.4-5.4 14.1 0 .1 8.6 15.3 9 15.9-1.8 5.6-.1 12.1-4.3 17.2l6 6.6c-.9 1.4-2.2 3.3-3.3 4.6.2.8.4 1.9.6 2.7 25.9 16 25.9 16 26.7 30-16.2 15.5 7.4 31.1 5.8 47.3 0 .1-2 11.2-10.5 5.6-13.8-9.1-21.8.1-26 9.4l-4 14.4c.1 2.6.8 11.4 6.6 12.7 2.7.6 6 1.4 21.9 22.8 7.1 9.6 5.4 22.1 10.8 32.3.4.7-1 48.8-24.6 36.2-3-1.6-11.6-5.2-15-4.5-8.1 1.6-7.8 18.1-17.1 13.6-12.4-5.9-12.4-5.9-13.6-1.5-.6 2.3-2.1 7.7-16.1 8.5-6.9.4-12.4-5.3-19.4-4.4l-37.9 12c-3.3 25.3-12 21.4-24 13.1-13.7-9.4-20.6 11.3-31.2 16.3l-36.1 13c-13.7-21.8-6.1-50.4-22.8-71.3-8.5-.2-50.5-26.4-50.6-26.7-23.2-37.1-13.9-63.9-10.5-71.2 5.5-11.8 2.8-16.3-7.1-26.9-.6.6-1.4 1.3-2 1.9 1.4 11.3-11.3 17.8-11.8 18-8.5 4.2-17.8 6.1-26.6 9.4-15.4 5.7-29.1-12.5-44.7-3.1-12.2 7.3-8.7 28.8-27.3 30.3-20.4-2.8-20.4-2.8-52.1 11.1-5-2-12.3-10.8-11.9-17.8 0-.8.4-1.8.6-2.5 1.1-4.9 6.7-6.7 7.8-11.6 1-4.4-4.1-7.7-2.3-12.3 2.3-5.9 4.8-8.9 9.8-14 1.9-1.9 4.2-4.2 4.3-7.2l-4.9-28.8c-17.6-11.4 2.6-21.8 2.8-21.9 20.1-9.1 20.1-9.1 35.3-31.8-.8-1.5-2.6-3.2-4.2-4-.2-.9-.2-.9 2.2-10.7-18.9-22.5 7.6-31 7.9-31.1 8.1-16.1 8.7-35 19.1-50.2 4-5.8 6.6-6.2 21.2-8.6.6.6 1.5 1.3 2.2 1.9-.1 1.6 0 3.6.1 5.2 2.6-.2 2.6-.2 16.3 16.6 6.5 8 14.1-5.1 21.7-2.4 7.7-5.3-2.9-13-3.6-19.6-1.1-10.9 6-14.7 14.2-19 8.3-4.4 8.5-4.4 12-4.7 5.6 5.8 12.1-2.7 12.1-2.9 2.8-21.6 14.7-18.6 14.8-18.5.4 1.5 1.1 3.5 1.7 5 3.3-1.8 4.5-5.6 7.4-7.7 7.4 2.6 7.4 2.6 12.9 2 .1.8.3 1.8.4 2.5-3.2 4.4-3.2 4.4-.3 11.1-2.4 3.2-6.2 4.9-8.6 8.1 1.2 3.4 1.2 3.4 2.1 8.6.7.4 1.7.9 2.4 1.3 10.7-7 28.3-4.2 28.5-4.1 8.5-7.7 2.7-29.6 18.2-27.8 15-2.7 15-2.7 20.5 4.3-.2.7-.6 1.7-.8 2.4 8.1-1.8 16.5-1.6 24.4-4.4 15.2 7.5 31.4.1 46.9 3.5 12.2 2.7 45 12.4 52.8 16.2 33.1 16.9 70.5 65.1 70.6 65.5M588.8 59.3c-22.8-4.5-46.3-6.9-70.5-7 24.1 0 47.7 2.4 70.5 7-14-2.6-14-2.6-21.3-3.7-9-1.3-9-1.3-13.4-1.8-6.3-.7-6.4-.7-9.6-1-2.3-.2-5.3-.5-7.6-.7-1.9-.1-4.5-.3-6.4-.5-1.7-.1-4-.3-5.8-.3-1.7-.1-3.9-.2-5.5-.3-1.7-.1-3.9-.1-5.5-.2-1.8 0-4.1-.1-5.9-.1-2 0-4.6-.1-6.6-.1-18.8.2-68.4 2.3-121.3 16.5-37.5 11.9-41.4 13.2-67 24.6-39.7 20.2-40.5 20.6-61 34.2-36.4 26.3-37.1 26.8-54.5 42.8-32.6 32.3-32.6 32.3-47.2 50.6-27.4 37.1-27.4 37.1-39 57.4C89.5 318 89.5 318 81.1 340c-14.7 44.1-15 44.9-19.8 68.5-7.7 47-7.8 47.9-8.8 72.6 0 20.1.8 47 2.3 67 7.1 47.1 7.1 47.1 13.4 70.1 14.2 44.5 14.2 44.5 23.9 66 20.8 41.3 20.8 41.3 33.6 60.8 26.7 37.4 26.7 37.4 42.4 54.7 31.4 32.1 32 32.8 50.3 47.6 35.8 26.8 36.4 27.3 57.5 39.6 36 19.2 38.9 20.7 64.2 30.7 25.2 8.9 39.1 13.8 72.2 20.9 14 2.6 14 2.6 21.3 3.7 9 1.3 9 1.3 13.4 1.8 6.4.7 6.4.7 9.6 1 2.3.2 5.3.5 7.6.7 1.9.1 4.5.3 6.4.5 1.7.1 4 .3 5.8.3 1.7.1 3.9.2 5.5.3 1.7.1 3.9.1 5.5.2 1.8 0 4.1.1 5.9.1 2 0 4.6.1 6.6.1 37.7-.3 68.6-4.8 87.9-8.5 32.3-7.4 39-9 69.9-19.9 39.9-16.7 41.5-17.3 63.8-29.9 38.1-23.6 38.8-24 57.6-38.9 34.1-29.3 34.8-29.8 50.7-47.1 29.9-35 29.9-35 43-54.3 24.4-39.5 24.4-39.5 34.3-60.7 18.1-43.3 18.1-43.3 24.7-66.2 10.7-44.3 12.9-56.1 16.7-105.1 0-48.9 0-48.9-3-73.1-7.7-46.9-7.7-46.9-14.3-69.8-14.8-44.3-14.8-44.3-24.8-65.6-21.3-41-21.3-41-34.4-60.3-27.2-37-27.2-37-43.1-54.1-31.8-31.7-32.4-32.3-51-47-36.1-26.3-36.8-26.8-58.1-38.9-35.9-18.6-38.9-20.1-64.8-29.9-20.3-6.9-37.9-12.9-66.2-18.6"/><path class="st4" d="M704.4 439c-.3 4-3 4.2-4.1 4.3-1.6-.1-2.7-.5-4.3-1.4-2-1.1-12.9-7.9-12.9-8-.8-.8-3.1-3.1.9-6.8 1.2-1.1 4.7-4.4 10.3-1.2 10.7 6.2 10.3 10.8 10.1 13.1M585.9 328.6c0 3.5-.6 5.1-1.3 7.2-1.3 3.7-2.1 5.9-1.2 18.3.1.9.4 1.3 1.1 1.9 2.9 2.9 2.1 7 1.8 8.2-1.7 6.7-6.1 6.7-11.1 6.7-2.2-.2-12.3-2.9-14.2-5.9-.2-.3-.3-.7-.4-1-.3-1.3.1-2.7.4-3.4 1-3 2.5-7.5.4-12.7-1.9-4.5-6.5-7.3-7.7-12.3-.1-.4-.1-1-.1-1.5.1-2.8 1.4-5.4 1.5-8.2.1-3-1.3-5.9-.6-9 0-.1 2.6-9 5.4-11.2.1 0 5.9-4.3 9.3-1.3 2.6 2.3 2.1 6.4 4.7 8.7 3.2 2.8 8.2 3 10.8 6.8.6 1 1.2 6.6 1.2 8.7m-89.7-90.4c0 .1-8.3 15.9-10.3 17.4-1.4 1.1-4.1 3.2-16.1-.8-3.3-1.1-4 1.5-4.1 2-.3 1.7 2.2 3 .7 4.7-.7.7-2 .8-2.6.8-2.5.1-4.3.3-6.4 3.1-7.2 9.3-7.2 9.3-8.1 9.9-.1.1-8.6 4.7-11.5-1.4-1.8-3.8-1.8-3.8-3.1-4.3-1.1 1.5-.6 3.5-1.9 4.9-.2-.2-.5-.4-.7-.6-.4-.4-.5-1.3-.5-2-.6-4.8-2.8-7.8-4-9.2-2.6-2.9-5.4-3.9-8.4-4.9-.9-.3-1.9-1-1.8-2.2.1-.5.7-1 1-1.5 1.4-2.2-1.7-4.1-.4-6.2 1.6-2.6 5-2.6 7.1-4.5 2.4-2.2 2.5-5 2.6-7 .3-7.1 7.5-12.1 12.6-13 4.3-.8 8.3.7 12.5 1 3.9.1 6.5-4.2 10.6-3.3 1.8.4 1.8.4 5.8 6.3 2 2.9 4.9.7 7.3 1.3 2.8.7 2.5 4.6 5.3 5.4.5.1.9.1 1.6-.6 2.2-2.1 4-1.5 5.3-1.1.6.2 1.4.8 1.9 1.2 1.6 1.3 3.8 1.7 5.4 3 .6.4.3 1.3.2 1.6m212.3-29.3c-.1-.4-37.3-48.4-70.3-64.8-12-6-49.1-15.7-53.3-16.6-15.5-3.4-31.8 4-46.9-3.5-7.9 2.8-16.3 2.6-24.4 4.4.2-.7.6-1.7.8-2.4-7.8-9.9-9.3-10.1-11.6-10.4-11.4 5.7-11.4 5.7-14 5.5-8.5 7.5-5.2 20.3-12.7 28.2-19.2-1-19.2-1-29.4 4.4-2.8-2.4-2.8-2.4-3.9-10.7 7.7-6.2 7.7-6.2 9.1-8.5-1.3-1.3-2.5-3.5-3.1-5.3.9-1.6 2.1-3.8 3-5.4-.5-.6-1.2-1.3-1.7-1.9-5.3 1-6.5 1-10.3-1.9-3.2.5-3.5.6-7.1 7.1-.7-.3-1.7-.6-2.5-.9-.5-1.4-1.4-3.3-2.2-4.6-2.9.2-6.8.4-14.7 15.5 2.9 9-6.2 9.9-9.9 8.2-10.5-5-29.9 10.2-26.6 24.6 9.9 5.1 4.9 16.6 3.8 17.1-1.3.7-3.6-.3-4.8-1.1-17.8 4.4-17.8 4.4-21.9-6.2-4.4-1.8-7.1-6.8-12.5-6.7.1-1.8 0-4.3-.4-6.1-9.2-2.6-19.8 3.6-22 6.7-11.1 15.3-11.6 34.8-19.9 51.2-11.2 3.3-22.8 17.3-8 30.3-.2 3.7-2.4 7-2.6 10.7 1.5 1.1 3.4 2.7 4.7 4-.2.3-19.5 31.1-28.9 31.5-2.8.1-11.5.5-16 12.4-.3.8-.6 2-.6 2.8 0 2.9 2.4 4.5 6.8 7.2 2.4 1.5 2.4 1.5 5.6 27.9 1.7 13.7-16.5 20.9-11.8 35.7-10.9 20-11.5 21.2 2.4 31 17.8-3.2 34.2-13.6 53.2-11 14.4-1.2 15.3-15.4 15.3-15.5-.3-6.4-.3-6.4 13.7-15.9 15.5-10.5 27.9 9.8 42.9 4.2 8.8-3.3 18.2-5.1 26.6-9.4 10-5.1 10.8-10 12.3-19.8 1.8 1 5.6 2.9 8.5 8 7.4 13-5.2 23.5-4.5 35.6.8 12.9 3.4 25.5 4.7 38.3.4 4 1.1 8.1 4.8 10.7l52.3 32c6-.5 11.5 9.6 11.6 9.7.7 1.2 1.4 3 1.5 4.4.1.6 9.4 58.4 17 59.3.1 0 8.1 0 16.3-8.9 2.1-2.2 5.2-5.6 38.7-22.2.9-.5 2.1-1.1 3.1-1.5 8.8-3.6 12.7 10 21.5 6.1 8.7-3.8 1.6-18.2 12.6-20 4.9 3.7 4.9 3.7 7.4 3.3 12.6-1.9 20.5-19 36.1-11 10.5 5.4 10.5 5.4 27.5-11.1.7-.7 2-1 2.9-1.2 6.3-1.6 5.1 9.3 11.4 7.7 7.6-1.9 5.7-13.5 14.5-14.1 5.6-.4 14.9 4.5 15 4.5 7.2 3.9 8.2 3.5 10.9 2.5.2-.1 16.7-23.6 15.4-33.5l-11.5-36.3-21-23.7c-3.5-1.1-7.9-2.4-8.3-11.7-.2-5.6 4.3-16.7 4.4-16.9.1-.2 9.2-19.6 23.8-9.6 13.1 9 12-9.1 12-9.3-1.8-9.2-9.2-16-10.5-25.4 0-.1-1.5-11.2 4.8-16.4.9-19.6.9-19.6-25.9-30.1-.4-.8-.8-1.9-1.2-2.8.9-1.5 2.3-3.3 3.4-4.5-1.7-2.4-4.2-4.1-5.9-6.5 3.1-5.3 1.9-11.6 4.1-17.2-9.2-18.1-9.2-18.1-9.3-19.5 7.3-5.8 6.1-9.4 5.7-10.7"/><path class="st4" d="M360.2 161.3c-1.3 1.5-2.5 2.2-2.9 2.3-.3.1-.6.3-.9.4l-10.1 3.4c-1.8.6-2.7.3-2.8-.9 0-.5.2-1.3.3-1.6.7-2 .9-3.6-2.7-2.6-1.9.5-1.9.3-1.6-1.9-.7-.2-1.6-.6-2-1.1.2-3.1 9.8-12.6 10.3-12.9 1.8-1.4 13.2-8.4 13.2-8.4 3.3-1.7 5-1.8 6.5-1.8 3.9.5 2.9 4.3 2.7 5-1.3 4.4-6 6.6-7.2 11.1-.6 2.2-.4 4.5-1.5 6.5 0 .5-.6 1.6-1.3 2.5M144.4 756.5c1.2 2.2 2.1 4.8 2.1 5h-.1c-.4-.3-2.4-2.5-2.7-3.2-.2-.5-.2-.5.4-2.2.1.1.2.3.3.4m-13.8-14.3c1 1.8 1 2.1 1 2.3-.2.1-2.2-1.2-3.8-2.9-2.6-2.8-2.9-4.1-2.9-4.2.2 0 .4.2.6.3.7.2.7-.2.2-1.8v-.2c1 .7 4.1 5 4.9 6.5m-4.8-15.4c.6 1.4 1.4 3 2.4 4.9 1.9 3.6 2.2 4.3 2.1 4.6h-.1c-.7-.4-4.2-5-6-8.3-.4-.7-1-1.8-1.1-2.6-.1-.9.4-1.5.5-1.5.6 0 1.7 1.8 2.2 2.9m-4.1-11.6c.1.2 1 2.4 0 2.2 0 0-1.5-.5-2.9-2.6-.4-.5-2.4-3.9-2-4.5.2 0 .2 0 .3.1 2.4 1.6 2.4 1.6 2.8 2 .4.6 1.4 1.9 1.8 2.8m-36.5-59.8c.3.8 1.1 3.4.2 3.2-.8-.4-1.3-1.7-1.6-2.5-1.2-3.2-.7-3.4-.6-3.4.9-.3 1.6 1.3 2 2.7m-16.5-36c1.1 4.2 2.5 8.2 3.4 12.4l-4-13.5-1.5-5.7v-.1c.2.2.7 1.5 2.1 6.9m7 7.4c1.8 6.6 1.8 6.6 1.5 6.9h-.1c-.5-.4-2.9-4.6-3.5-6.9-.9-3.3-1.2-5.2-.8-5.9 0-.1.1-.2 0-1.2-.5-2.7-1.5-5.2-2-7.9-.1-.7-.1-.9 0-1 .8.7 4 12.4 4.9 16m162.1 234.6c-1.8-1.4-4.3-3.2-6-4.6-20.5-15.6-32.8-25-51.6-44.1 11.3 10.7 26.4 24.8 38.2 34.8l20.2 15.4-.3-.2c-.4-.3-.9-.6-1.3-.9 2.1 1.3 4 2.9 6.2 4.1-.7-1-.7-1-5.4-4.5M176.7 761c-3.9-8.7-13.5-10.9-19.8-16.8-4.2-3.9-4.2-3.9-16.6-27.8-8.8-17.1-13.1-36.2-24.2-52.3-3.8-5.5-10.8-14.5-14.6-12.5-1.9-.9-2-.9-4.6-5.8C84 621.4 84 621.4 81.3 615.2c-4.2-9.8-5.6-16.6-6.8-22.5-1.1-5.5-1.9-6-2.9-6.7-.3.3-.7.7-1 1.1-.4-.1-1-.2-1.4-.3-1.4-2.1-2.3-4.5-3.5-6.7-.3.3-.7.7-.9 1 .5 8.3.3 16.6.8 25-1.4-2.7-4.6-17.5-4.6-17.7 2.2 9 5 21.1 7.2 30.1 14.2 44.5 14.2 44.5 23.9 66 20.8 41.3 20.8 41.3 33.6 60.8 10.4 14.6 24.7 33.7 36 47.5l.4.4c12.7 14.4 34.5 32.6 34.7 32.7-2-4.2-6.3-7.3-6.3-12.5 1 .1 1 .1 3.9 1.2-4.3-14.2-18.1-21.9-23.9-35.1 3.1.5 5.7 2.4 8.6 3.4.3-.3.6-.7.9-.9-2.6-6.9-.6-14.3-3.3-21m68.6 96.2c2.6 2.4 2.6 2.9 2.6 3.2-1.5.1-2.6-1.5-4.2-.9-.6.2 0 1.1.2 1.5.3.5.3.5.3.8-1 .3-14.4-7.6-28.3-19.9 1.4.3 2.3 1.6 3.6 2.2-.3-.4-.3-.4-2.3-2.2-2.2-1.9-2.3-2.1-2.3-2.4h.2c11.3 3.6 11.3 3.6 12.7 4.5 5.9 3.5 15.1 10.9 17.5 13.2m-136.6-282c.1 1.8-.3 3.1-.6 3.9-.8 2.7-2.3 7.7.7 15.1 2.5 6.1 2.5 6.1 1.8 10.4 0 .2-2.9 15.6-8.3 10.6-5.3-4.9-6.2-10.1-7.9-20.5-.8-4.9.6-7.3 1.4-8.6.4-.6.9-1.5.6-4.3-.3-3.2-2.1-6-2-9.3 0-.1 0-.7.5-.6 1.1.2 2.6 2.3 3.1.8.8-2.5-.9-4.7-1-7.2 0-2.4 0-2.4 6.2-1.6 4.1 1.3 5.5 10.3 5.5 11.3"/><path class="st4" d="M94.2 614.5c-2.2-2.5-2.8-1-3.4 1.2-1.9 6.9-7-3.1-8.6-6.4-5.6-11.1-4.5-27.6-4.5-27.7.1 0 .2 0 .2-.1.1.1.3.2.3.3.5.9 1.7 6.3 1.7 6.3.7 3.4 2.1 9.3 3.5 11.3.9 1.4 2 1.7 3.6 1.9 2.1.2 3.5 2.3 4.4 4.1 1.3 2.9 2.1 5.5 2.8 9.1m686.6 219.9c-.2.2-.4.4-.7.6-.7.5-1 .7-1.8 1-1 .3-1.2.5-1.3.5-1.1.9-1.6 2.3-2.7 3.2-.5.4-.5.4-3.9 2.6-1 .7-1 .7-12.8 9-3.1 2.2-3.3 2.1-3.6 2.1 0-.7.8-1.5 1.4-2.2l17.9-15.8c1.8-1.6 2.3-1.6 3.1-1.7.6-.2.9-.3 2.7-1.5 5.1-3.4 5.5-3 4.5-1.2-.7 1.5-2.1 2.8-2.8 3.4m36.1-32.9c-.1.1-6 5.5-7 5.9-.4 0-.2-.6.4-1.4.2-.3.4-.6.6-.8 1-1.3 2-2.5 3-3.9.7-1 1.2-2.1 2-3 0 0 1.7-1.7 1.7-1 0 .2-.2.6-.3.9-.4.8-.7 1.5.1 1.2 1-.4 1.1-.4 1-.1 0 .2-.5 1.2-1.5 2.2m2.3-9.6c-1.6 1.7-6 4.7-7 4.4-.7-.2-.8-.3-5.5 3.9-8.4 7.4-8.4 7.4-12.6 9.9-.3.2-1.5.9-1.5 1.9 0 .5 0 .9-1.2 1.9-.3.2-.6.5-1 .7-1.8.9-3.8.5-5.7.8-1.7.3-3.3-.6-5-.3-1.5.3-3.1 1-5 2.2-4.2 2.6-6.5 2.9-7.1.9-.1-.2.1-.5.2-.7 1.7-2.7 6.1-2.6 6.9-6.3.1-.5-.2-.9-.6-1.6-.2-.4-.8-1.4 1.1-3.5 3-3.3 7.6-6.2 8.6-5.8.5.3.8 1 1.5 1 1.1-.2 2.1-1.1 4.2-3.6 0 0 8.8-7.6 16.4-11.9 3.8-2.2 8.5-1.7 12.4-3.7 2.5-1.3 4.4-3.7 7-4.8h.4c.1.6.2.8-1.6 4.3-.7 1.3-.7 1.3-1.8 4.4-.7 1.8-2.8 2.5-3.3 4.4.3.1.7.2 1 .2.1.1.2.2.2.3-.2 0-.4.3-1 1m-36.8-6c-.1.2-.3.4-.4.7-.3.4-1 .8-1.4 1.2-1.4 1.2-4.2 3.9-6.7 8.1-1.6 2.6-2.1 5.8-4.3 8.1-.5.6-1 .7-1.2.8-.8.2-1.5-.1-2.3.1-.8.2-1.5.7-2.3.8-.8-.1-.4-1.2 1.1-2.5 2.1-1.8 3-2.6 3.4-3.7.6-1.5-.3-2.9-.3-4.4 0-.3.1-.8.1-1.1.1-.3.1-.8.2-1.1.4-2.7.3-3 0-4.2-.1-.5.1-1 .9-1.7.2-.2.6-.5.8-.7 2.4-1.9 5.2-3.4 7.6-5.3 1.6-1.3 2.8-3.1 4.5-4.3 0 0 2.1-1.2 2-.2-.2 1.7-2.1 2.4-2.2 4.1 0 .6 0 .6 1.9 1 .6 1.1-1.4 4.2-1.4 4.3m25.5-8.4c-.1.1-2.6 3.3-5 4.5-1.7.8-2.5.2-2.9-.1-.2-.1-.3-.1-.4-.1-1.6-.1-2.5 1.1-3.8 1.7 0 0-2.2.7-2.3.3-.1-.4.5-1.6 1.7-2.5 3.8-2.9 4.6-4.4 7-9.3-1.3.9-1.9 2.5-3.5 3-.6 0-.9-.6-.5-1.5.1-.2.2-.4.3-.5l4.1-6.1c.6-.5 6.3-3 7-2.7.2.1.6.2.7.7 0 .1.1.2.1.3.1.3.1.7.2 1.1.3 1.3 1 2.4.8 3.8 0 0-.6 3.7-3.5 7.4m22.1 25.6l9.4-10.5-.3.3c-1.6 1.9-1.8 2.1-3.8 4.3 5.2-6 5.2-6 16-19.4l.7-.8c7.1-8.5 7.5-9.4 13.3-21.3-2.6 1.5-4 4.2-6.1 6.2 2.8-12.6 17.2-17.7 19.7-30.5-3.6 2-5 6.5-8.8 8.3-.1-.7 0-1.7.2-2.5l-.6-.9c-12.5 3.5-8.3 17.6-15.6 24.4-.3-.2-.7-.4-1-.5-16.6 16.6-16.6 16.6-19.8 16.6-.1-.3-.3-.8-.4-1.1 2.3-3.1.3-7.2 2.7-10.3 3.4-4.3 8.2-7.4 11.1-12.1 1.4-2.3 3.2-4.3 4.5-6.7 0-.1 4.2-8.6 3.4-11.7-1.2.3-2.2.9-3.3 1.4-.2-.3-.5-.7-.7-1-4.3.6-6.4 4.8-10.1 6.3-.2-.3-.5-.6-.7-.9-3.3 5-3.3 5-3.8 5.4l-8.6 4.8c-.1-.3-.3-.8-.4-1.1.5-.8 1.1-1.9 1.5-2.7-7 .4-5 10.6-12 11-.2-.3-.5-.7-.7-1-.4 0-.9-.1-1.3-.2-4.2 3.3-4.2 3.3-5.1 3.2-.1-.6-.6-1.4-1.1-1.7-3.4 1.9-3.4 1.9-4 2-.6-1.1-.6-2.4-1.3-3.5-2.3.2-2.4 1.3-2.3 1.9 1 4.7-11 12-11.1 12-.5-.6-.7-1.6-.7-2.3-.3-.2-.6-.5-.9-.8-4.7 1.7-10.7-1.4-14.5 3.7-5.7 7.6-9 8.9-13 8.5-.3.1-.7.2-1 .3-.1-.4-.2-.9-.3-1.3 2.4-3 6.2-4 9.2-6.1-1.7-8.6-1.7-8.6-.5-10 6.5-7.4 6.5-7.4 4.8-10.8-1.4-2.8-1.4-2.8.1-14.5 1.5-11.5 1.5-11.5.5-12.5h-.8c-1.8.7-2.5.9-7.1 4.7-.3.3-.8.7-1.1 1-5.1 4.3-17.5 15.4-22.6 25.2-2.8 5.4-9.4.2-12.6 4.6-.5-.6-.9-1.6-1.1-2.3-10.6 4.5-13.5 17.6-24.3 21.8-3.9 1.5-3.9 1.5-14.7-6.6-4.5 8.3-10.2 29-10.1 29.5.8 3.1 13.9 9.6 19.9 10.9 8 1.7 5.5 6.5 2 10.2-.1.1-12.8 13-18.4 5.9-3.6.2-17.9 14.3-18.1 14.5 1.4 2.9 9.5 4.3 9.6 4.3 1.7.3 1.7.3 3.8 6.1 6.4 2.8 7.5 13.6 17 11.7l.8.8c3.7-.5 6.6-3 10.2-3.6.1.4.2.9.2 1.3 3.1-.2 6.8-6.5 7.1-8.5.6-2.8.9-4.4 15.2-14.7 3.2 1.4 5-1.7 5.3-2.3-.2-.3-.5-.7-.6-1 2-5.2 8.7-6.1 8.8-6.1-.6 1.6-1.8 2.8-2.7 4.2 9 .1 9.4-12.6 18.4-12.4-1.5 3.3-8.9 11.9-15.5 19.5 2.9 1.3 4.8-1.4 7.3-1.8-.8 3.8-4.6 5.2-6.5 8.1.2.2.6.5.8.7 5-1.1 9.2-4.4 14.4-5.2-3.3 7.1-12.3 8-16 14.7.2.3.4.7.5 1 .7-.2.7-.2 6.3-3-1 7.6-9.3 8.4-12.7 13.8 1.5-.1 1.5-.1 3.5-1.2-.2.3-.5.6-.7.9.2-.1 52.6-36.3 111.1-99.9.2 1.8-52.2 56.2-52.7 56.7-2 1.9-37.7 29.6-38.1 29.9l-.3.7c-1.5 3.3-12.5 12.6-12.6 12.7 4.6-2.3 8-6.1 12.2-8.9-.7.9-.7.9-3.4 3.2.4-.2.8-.4 1.2-.5-1.1.9-2.1 1.7-3.2 2.6 8.4-4 27.9-20.1 30.1-21.9-1 .8-1 .8-10.3 7.1 1.9-3 26.6-23.6 26.8-23.7-.6 1-1.4 2-1.9 3 2.9-1.5 4.8-4.1 7.1-6.2-.7 1.6-.7 1.6-8 8.3 2.3-1.7 2.3-1.7 13.7-12.3l.4-.4c6.2-5.6 13.7-13.2 19.1-19"/><path class="st4" d="M734.7 862.9c-.1.1-14.4 9-14.4 7 0-.3.3-.8.5-1.2.2-.4.6-1.2.2-1.4-.1-.1-.3-.1-.4-.1-1.4.1-2.4 1.2-3.8 1.4-.8.1-.7-1.1-1.4-1 1.3-.8 2.8-1.1 4-1.9 1.1-.8 1.7-1.6 1.4-1.8-.2-.1-1.2.2-1.9.4-2.6.9-3.1.6-3.2.5 0-.2 0-.4.7-1.1 1.4-1.4 3.1-2.5 4.6-3.8.8-.8 1.3-1.8 2.2-2.5.8-.7 3.9-2.6 4.3-2.7h.1c.8 1.9-1.3 4.6-2.1 5.6-1.5 1.9-3.9 4.7.2 4.5 1.9-.1 4.6-1 7.9-2.8 3.2-1.8 1.7.5 1.1.9m118.7-105.5c-.4.5-8.6 7.1-8.7 7.1 0 0-.8.4-.9-.9-.1-1.8.2-2.3.5-2.8.7-1 3.3-4.1 3.8-3.8.4.3.2 1.1.9 1.2.1 0 .6 0 1.6-.8 1.3-1 3-3.1 3.8-4 .6-.7.9-1 1.1-1.1h.1c0 .3-.9 3.4-2.2 5.1m-47.6-11.9c-.7 1.3-2.2 2.8-3.6 4.1-.1-.5-.2-2.1-1-3.2-.2-.3-.5-.7-.3-1.5.4-1.5 2.8-4.4 3.9-4.5 1 .1 1.5 2.3 1.5 2.6.2 1.1-.2 2-.5 2.5M842 731c-1.9 2.3-3.3 3.6-4.7 2.9 2.2-2.4 3.4-3 5-3.2-.1 0-.2.2-.3.3m-28.9 57.8c-4.4 4.3-5.9 7.2-6.7 8.8-.9 1.7-1.2 2.4-10.8 10.2-6.2 5.1-9.1 4.8-11.4 4.6 2.2-2.2 4.3-4.4 2.8-5.3-.3-.2-.8-.5-.2-1.2.8-1 1.8-1.7 2.7-2.6 1.1-1.2 1.7-2.7 2.8-3.9.8-.9 1.8-1.8 2-1.9 2.7-2.3 11-7.2 11-7.2 1.6-.9 2-.5 2.2-.2.3 0 .3 0 1.4-1.1 2.2-2.3 2.8-2.5 3.2-2.6.4 0 .6.1.8.9.3 1.1.7 1.1 1.6.5-.4.1-.9.6-1.4 1"/></g></g></g><path class="st6" d="M457.7 800.9c-147.4 0-281-59.5-378-155.7C140.3 821 307.1 947.3 503.5 947.3c247.6 0 448.4-200.7 448.4-448.4 0-7.8-.2-15.5-.6-23.2C869 667 679 800.9 457.7 800.9z" id="_x33_Shade"/></svg>